<svg id="Group_1864" data-name="Group 1864" xmlns="http://www.w3.org/2000/svg" width="104.873" height="104.874" viewBox="0 0 104.873 104.874">
  <path id="Path_5805" data-name="Path 5805" d="M297.922,337.127h54.962V309.776H297.922Zm43-23.16h8.137V322.1h-8.137Zm0,11.5h8.137V333.6h-8.137Zm-13.058-11.5H336V322.1h-8.137Zm0,11.5H336V333.6h-8.137Zm-13.059-11.5h8.137V322.1H314.8Zm0,11.5h8.137V333.6H314.8Zm-13.058-11.5h8.137V322.1h-8.137Zm0,11.5h8.137V333.6h-8.137Z" transform="translate(-272.931 -264.862)" fill="#242424"/>
  <path id="Path_5806" data-name="Path 5806" d="M313.236,243.059A52.437,52.437,0,1,0,365.672,295.5a52.437,52.437,0,0,0-52.436-52.437m13.92,25.918a2.2,2.2,0,0,1,2.195-2.195h.518a2.2,2.2,0,0,1,2.195,2.195v5.137a2.2,2.2,0,0,1-2.195,2.195h-.518a2.2,2.2,0,0,1-2.195-2.195Zm-32.786,0a2.2,2.2,0,0,1,2.195-2.195h.518a2.2,2.2,0,0,1,2.195,2.195v5.137a2.2,2.2,0,0,1-2.195,2.195h-.518a2.2,2.2,0,0,1-2.195-2.195Zm51.432,45.7a6.275,6.275,0,0,1-6.021,6.327H286.76a6.3,6.3,0,0,1-6.051-6.327v-38.4a5.794,5.794,0,0,1,6.051-5.733h5.823v3.48a4.242,4.242,0,1,0,8.481,0v-3.48h24.383v3.48a4.242,4.242,0,1,0,8.482,0v-3.48h5.852a5.768,5.768,0,0,1,6.021,5.733Z" transform="translate(-260.799 -243.059)" fill="#242424"/>
</svg>
