<?xml version="1.0" encoding="UTF-8"?>
<svg xmlns="http://www.w3.org/2000/svg" width="171.477" height="87.697" viewBox="0 0 171.477 87.697"><g id="Logo" transform="translate(-2179.608 -665.982)"><g id="Group_6" data-name="Group 6" transform="translate(2179.608 665.982)"><path id="Path_25" data-name="Path 25" d="M2325.428,758.613a63.672,63.672,0,0,1-27.953,23.707,74.644,74.644,0,0,1-18.684,5.1,72.568,72.568,0,0,1-17.43-.077,66.1,66.1,0,0,1-19.837-5.817,176.422,176.422,0,0,1-17.824-10.215c-2.951-1.824-5.927-3.611-8.982-5.257a44.378,44.378,0,0,0-9.417-3.987c-6.245-1.684-13.648-1.353-18.3,3.694-4.39,4.759-4.651,12-2.145,17.72a17.823,17.823,0,0,0,2.174,3.808c.187.241.38.477.584.7.091.1.295.422.445.448.527.094-.308-.815-.376-.9a16.969,16.969,0,0,1-2.994-7.545c-.147-.915-.216-2.187-.268-2.951a15.984,15.984,0,0,1,2.085-7.945,11.863,11.863,0,0,1,5.931-4.894c5.527-2.085,11.907-.5,17.013,2.029a117.379,117.379,0,0,1,11.508,6.8c5.052,3.271,10.051,6.642,15.327,9.545a74.485,74.485,0,0,0,16.5,6.824,68.208,68.208,0,0,0,18.186,2.3,77.527,77.527,0,0,0,13.9-1.183,61.779,61.779,0,0,0,17-5.742A51.221,51.221,0,0,0,2325.02,760.3l.562-1.292a.883.883,0,0,0,.1-.232c.006-.122-.115-.39-.255-.162" transform="translate(-2181.107 -703.997)" fill="#0091c2"/><path id="Path_26" data-name="Path 26" d="M2358.594,673.522c-3.525,1.574-7.047,3.226-10.714,4.449a36.628,36.628,0,0,1-8.231,1.988c-1.474.132-2.919.226-4.4.238a30.134,30.134,0,0,1-7.14-.87,94.9,94.9,0,0,1-13.974-4.614c-3.535-1.453-6.956-3.133-10.455-4.661a51.111,51.111,0,0,0-12.874-3.575c-11.444-1.69-22.988,1.055-32.985,6.7-9.837,5.556-18.037,13.791-24.7,22.83-.131.178-.534.548-.561.767-.043.348.173.234.352.053.484-.492.912-1.055,1.37-1.572.99-1.12,2.047-2.174,3.108-3.225,2.021-2,4.131-3.914,6.3-5.75a81.583,81.583,0,0,1,14.143-9.711,56.922,56.922,0,0,1,15.612-5.7,48.29,48.29,0,0,1,29.45,3.458c2.813,1.3,5.635,2.573,8.5,3.751a85.823,85.823,0,0,0,16.4,5.171,34.706,34.706,0,0,0,16.781-.816,66.175,66.175,0,0,0,7.1-2.7c2.263-1.012,4.462-2.158,6.651-3.32a128.384,128.384,0,0,1-3.613,22.372c-.047.173-.235.935.154.569a1.573,1.573,0,0,0,.17-.468q.133-.366.264-.734.474-1.333.917-2.676c.584-1.762,1.094-3.547,1.578-5.338.971-3.587,1.755-7.228,2.419-10.884.419-2.306.745-4.631,1.1-6.949l-2.718,1.213" transform="translate(-2201.357 -665.983)" fill="#0091c2"/><path id="Path_27" data-name="Path 27" d="M2179.608,727.853h1.649a.723.723,0,0,1,.427.12.581.581,0,0,1,.229.325l1.795,6.312c.044.156.084.325.121.507s.071.376.105.58q.058-.307.128-.58t.15-.507l2.071-6.312a.7.7,0,0,1,.23-.306.647.647,0,0,1,.42-.138h.576a.7.7,0,0,1,.423.12.619.619,0,0,1,.233.325l2.058,6.312a8.383,8.383,0,0,1,.277,1.036q.052-.285.106-.547c.036-.175.074-.338.113-.489l1.795-6.312a.588.588,0,0,1,.226-.313.683.683,0,0,1,.423-.131h1.54l-3.276,10.551h-1.774l-2.3-7.209c-.03-.092-.06-.192-.091-.3s-.062-.222-.091-.344q-.044.183-.092.344c-.032.107-.062.206-.091.3l-2.327,7.209h-1.773Z" transform="translate(-2179.608 -691.398)" fill="#324e28"/><path id="Path_28" data-name="Path 28" d="M2230.215,733.047a4.916,4.916,0,0,0-.23-1.558,3.3,3.3,0,0,0-.66-1.171,2.847,2.847,0,0,0-1.047-.736,3.915,3.915,0,0,0-2.783,0,2.875,2.875,0,0,0-1.055.736,3.311,3.311,0,0,0-.667,1.171,5.314,5.314,0,0,0,0,3.115,3.268,3.268,0,0,0,.667,1.168,2.894,2.894,0,0,0,1.055.734,3.924,3.924,0,0,0,2.783,0,2.867,2.867,0,0,0,1.047-.734,3.259,3.259,0,0,0,.66-1.168,4.914,4.914,0,0,0,.23-1.557m2.014,0a5.861,5.861,0,0,1-.386,2.149,5.084,5.084,0,0,1-1.088,1.71,4.913,4.913,0,0,1-1.686,1.128,6.091,6.091,0,0,1-4.367,0,4.945,4.945,0,0,1-1.693-1.128,5.058,5.058,0,0,1-1.091-1.71,6.168,6.168,0,0,1,0-4.3,5.068,5.068,0,0,1,1.091-1.711,4.945,4.945,0,0,1,1.693-1.127,5.716,5.716,0,0,1,2.185-.405,5.642,5.642,0,0,1,2.181.409,4.987,4.987,0,0,1,1.686,1.127,5.054,5.054,0,0,1,1.088,1.708,5.858,5.858,0,0,1,.386,2.149" transform="translate(-2196.829 -691.316)" fill="#324e28"/><path id="Path_29" data-name="Path 29" d="M2266.857,733.017a4.9,4.9,0,0,0-.23-1.558,3.3,3.3,0,0,0-.661-1.171,2.841,2.841,0,0,0-1.047-.737,3.916,3.916,0,0,0-2.783,0,2.868,2.868,0,0,0-1.055.737,3.307,3.307,0,0,0-.667,1.171,5.321,5.321,0,0,0,0,3.116,3.271,3.271,0,0,0,.667,1.167,2.888,2.888,0,0,0,1.055.734,3.924,3.924,0,0,0,2.783,0,2.861,2.861,0,0,0,1.047-.734,3.262,3.262,0,0,0,.661-1.167,4.9,4.9,0,0,0,.23-1.558m2.014,0a5.851,5.851,0,0,1-.386,2.149,5.1,5.1,0,0,1-1.088,1.711,4.929,4.929,0,0,1-1.686,1.127,6.083,6.083,0,0,1-4.367,0,4.956,4.956,0,0,1-1.693-1.127,5.049,5.049,0,0,1-1.091-1.711,6.156,6.156,0,0,1,0-4.3,5.056,5.056,0,0,1,1.091-1.711,4.955,4.955,0,0,1,1.693-1.127,5.716,5.716,0,0,1,2.185-.4,5.643,5.643,0,0,1,2.181.408,5.008,5.008,0,0,1,1.686,1.128,5.067,5.067,0,0,1,1.088,1.707,5.853,5.853,0,0,1,.386,2.149" transform="translate(-2211.881 -691.304)" fill="#324e28"/><path id="Path_30" data-name="Path 30" d="M2303.52,733.128a4.845,4.845,0,0,0-.233-1.558,3.313,3.313,0,0,0-.664-1.168,2.876,2.876,0,0,0-1.047-.733,3.607,3.607,0,0,0-1.391-.256h-2.051v7.428h2.051a3.616,3.616,0,0,0,1.391-.255,2.868,2.868,0,0,0,1.047-.734,3.307,3.307,0,0,0,.664-1.168,4.844,4.844,0,0,0,.233-1.557m2.007,0a5.718,5.718,0,0,1-.386,2.131,4.787,4.787,0,0,1-2.773,2.758,5.929,5.929,0,0,1-2.182.387h-4.027V727.853h4.027a5.87,5.87,0,0,1,2.182.39,4.939,4.939,0,0,1,1.685,1.087A4.87,4.87,0,0,1,2305.14,731a5.715,5.715,0,0,1,.386,2.131" transform="translate(-2227.484 -691.398)" fill="#324e28"/></g><path id="Path_31" data-name="Path 31" d="M2334.81,736.784h4.225v1.62h-6.187V727.853h1.963Z" transform="translate(-62.947 -25.415)" fill="#324e28"/><path id="Path_32" data-name="Path 32" d="M2370.523,727.853v1.561h-4.677v2.926h3.685v1.511h-3.685v2.984h4.677V738.4h-6.654V727.853Z" transform="translate(-75.69 -25.415)" fill="#324e28"/><rect id="Rectangle_5" data-name="Rectangle 5" width="1.97" height="10.551" transform="translate(2307.36 702.438)" fill="#324e28"/><g id="Group_7" data-name="Group 7" transform="translate(2320.874 702.321)"><path id="Path_33" data-name="Path 33" d="M2424.815,736.877a4.924,4.924,0,0,0,1.157-.12,4.87,4.87,0,0,0,.938-.332v-1.919h-1.321a.412.412,0,0,1-.3-.106.345.345,0,0,1-.11-.259v-1.109h3.509V737.3a5.774,5.774,0,0,1-.835.507,5.279,5.279,0,0,1-.927.354,7.08,7.08,0,0,1-1.054.208,9.957,9.957,0,0,1-1.211.069,5.5,5.5,0,0,1-2.123-.4,4.978,4.978,0,0,1-2.784-2.824,5.773,5.773,0,0,1-.4-2.167,5.965,5.965,0,0,1,.386-2.182,4.8,4.8,0,0,1,2.824-2.817,6.241,6.241,0,0,1,2.276-.394,5.926,5.926,0,0,1,2.236.384,5.148,5.148,0,0,1,1.6,1l-.569.89a.508.508,0,0,1-.446.27.661.661,0,0,1-.357-.117c-.156-.092-.315-.185-.479-.278a3.224,3.224,0,0,0-.54-.24,4.345,4.345,0,0,0-.664-.168,4.914,4.914,0,0,0-.85-.065,3.644,3.644,0,0,0-1.412.263,2.991,2.991,0,0,0-1.076.751,3.383,3.383,0,0,0-.686,1.175,4.6,4.6,0,0,0-.241,1.533,4.772,4.772,0,0,0,.256,1.623,3.392,3.392,0,0,0,.715,1.2,3.072,3.072,0,0,0,1.095.748,3.621,3.621,0,0,0,1.385.259" transform="translate(-2419.358 -727.654)" fill="#324e28"/></g><path id="Path_34" data-name="Path 34" d="M2464.425,738.4h-1.978v-4.612H2457.5V738.4h-1.978V727.853h1.978v4.538h4.947v-4.538h1.978Z" transform="translate(-113.34 -25.415)" fill="#324e28"/><path id="Path_35" data-name="Path 35" d="M2305.02,698.716v1.267h-2.494v7.023h-1.542v-7.023h-2.505v-1.267Z" transform="translate(-48.829 -13.446)" fill="#324e28"/><path id="Path_36" data-name="Path 36" d="M2329.931,707.006h-1.554v-3.623h-3.887v3.623h-1.554v-8.29h1.554v3.566h3.887v-3.566h1.554Z" transform="translate(-58.876 -13.446)" fill="#324e28"/><path id="Path_37" data-name="Path 37" d="M2354.614,698.716v1.227h-3.675v2.3h2.9v1.187h-2.9v2.345h3.675v1.232h-5.229v-8.29Z" transform="translate(-69.741 -13.446)" fill="#324e28"/><g id="Group_8" data-name="Group 8" transform="translate(2243.813 727.932)"><path id="Path_38" data-name="Path 38" d="M2292.452,775.431c.061.135.12.275.176.417.056-.146.115-.287.178-.424s.126-.27.193-.4l1.852-3.648a.632.632,0,0,1,.1-.146.331.331,0,0,1,.117-.077.385.385,0,0,1,.145-.025h1.468v7.208h-1.475v-4.149q0-.3.029-.653l-1.911,3.708a.63.63,0,0,1-.24.263.667.667,0,0,1-.344.089h-.228a.67.67,0,0,1-.344-.089.629.629,0,0,1-.24-.263l-1.922-3.713c.013.115.024.23.03.344s.01.219.01.315v4.149h-1.476v-7.208h1.468a.392.392,0,0,1,.146.025.33.33,0,0,1,.117.077.632.632,0,0,1,.1.146l1.857,3.663c.066.125.13.256.191.392" transform="translate(-2288.573 -771.124)" fill="#0091c2"/><path id="Path_39" data-name="Path 39" d="M2317.79,775.576h1.971l-.663-1.976c-.043-.125-.094-.273-.151-.443s-.115-.354-.171-.552q-.079.3-.164.559t-.158.446Zm4.635,2.758h-1.3a.6.6,0,0,1-.359-.1.526.526,0,0,1-.2-.26l-.426-1.257H2317.4l-.426,1.257a.572.572,0,0,1-.545.361h-1.307l2.792-7.214h1.713Z" transform="translate(-2299.481 -771.12)" fill="#0091c2"/></g><path id="Path_40" data-name="Path 40" d="M2341.942,777h2.674v1.337h-4.347V771.12h1.674Z" transform="translate(-65.996 -43.188)" fill="#0091c2"/><path id="Path_41" data-name="Path 41" d="M2362.429,777h2.674v1.337h-4.347V771.12h1.674Z" transform="translate(-74.411 -43.188)" fill="#1890ba"/></g></svg>