<svg xmlns="http://www.w3.org/2000/svg" width="73.76" height="73.76" viewBox="0 0 73.76 73.76">
  <path id="bus-svgrepo-com_1_" data-name="bus-svgrepo-com (1)" d="M17.7,0C13.138,0,9.8.588,7.514,2.582S4.426,7.716,4.426,11.8v5.9H2.95A2.971,2.971,0,0,0,0,20.653v11.8A2.971,2.971,0,0,0,2.95,35.4H4.426V60.483A7.1,7.1,0,0,0,5.9,64.955v4.379a4.449,4.449,0,0,0,4.426,4.426h5.9a4.449,4.449,0,0,0,4.426-4.426V67.859H53.107v1.475a4.449,4.449,0,0,0,4.426,4.426h5.9a4.449,4.449,0,0,0,4.426-4.426V64.955a7.1,7.1,0,0,0,1.475-4.472V35.4h1.475a2.971,2.971,0,0,0,2.95-2.95v-11.8a2.971,2.971,0,0,0-2.95-2.95H69.334V13.277c0-3.9-.311-7.094-1.89-9.543S62.972,0,59.008,0Zm0,2.95H59.008c3.411,0,4.944.8,5.947,2.351s1.429,4.264,1.429,7.975V60.483c0,2.046-.588,2.852-1.8,3.5a12.82,12.82,0,0,1-5.578.922H14.752a12.82,12.82,0,0,1-5.578-.922c-1.21-.651-1.8-1.458-1.8-3.5V11.8c0-3.711.674-5.739,2.074-6.961S13.415,2.95,17.7,2.95Zm4.426,1.475a2.971,2.971,0,0,0-2.95,2.95v2.95a2.971,2.971,0,0,0,2.95,2.95H53.107a2.971,2.971,0,0,0,2.95-2.95V7.376a2.971,2.971,0,0,0-2.95-2.95Zm0,2.95H53.107v2.95H22.128Zm-5.9,7.376a6.032,6.032,0,0,0-4.379,1.521,6.032,6.032,0,0,0-1.521,4.379v17.7a6.032,6.032,0,0,0,1.521,4.379,6.032,6.032,0,0,0,4.379,1.521l41.305-.092a6.092,6.092,0,0,0,3.688-1.383,5.627,5.627,0,0,0,2.213-4.426v-17.7a6.032,6.032,0,0,0-1.521-4.379,6.032,6.032,0,0,0-4.379-1.521Zm0,2.95H57.533a2.989,2.989,0,0,1,2.259.691,2.989,2.989,0,0,1,.691,2.259v17.7a2.413,2.413,0,0,1-1.06,2.074,4.018,4.018,0,0,1-1.89.784l-41.305.092a2.989,2.989,0,0,1-2.259-.692,2.989,2.989,0,0,1-.691-2.259v-17.7a2.989,2.989,0,0,1,.691-2.259A2.989,2.989,0,0,1,16.227,17.7ZM2.95,20.653H4.426v11.8H2.95Zm66.384,0h1.475v11.8H69.334ZM16.965,48.681A6.638,6.638,0,1,0,23.6,55.32,6.662,6.662,0,0,0,16.965,48.681Zm39.83,0a6.638,6.638,0,1,0,6.638,6.638A6.662,6.662,0,0,0,56.8,48.681Zm-39.83,2.95a3.688,3.688,0,1,1-3.688,3.688A3.669,3.669,0,0,1,16.965,51.632Zm39.83,0a3.688,3.688,0,1,1-3.688,3.688A3.669,3.669,0,0,1,56.8,51.632ZM8.851,67.029a16.785,16.785,0,0,0,5.9.83H17.7v1.475a1.456,1.456,0,0,1-1.475,1.475h-5.9a1.456,1.456,0,0,1-1.475-1.475Zm56.057,0v2.3a1.456,1.456,0,0,1-1.475,1.475h-5.9a1.456,1.456,0,0,1-1.475-1.475V67.859h2.95A16.785,16.785,0,0,0,64.909,67.029Z" fill="#31572c"/>
</svg>
