<svg xmlns="http://www.w3.org/2000/svg" width="36.32" height="36.32" viewBox="0 0 36.32 36.32">
  <g id="Group_2853" data-name="Group 2853" transform="translate(-163.066 -1671.178)">
    <rect id="Rectangle_1280" data-name="Rectangle 1280" width="36.32" height="36.32" rx="11" transform="translate(163.066 1671.178)" fill="#31572c"/>
    <path id="time-svgrepo-com" d="M0,11.094a10.784,10.784,0,0,1,.888-4.3A11.437,11.437,0,0,1,3.24,3.24,10.634,10.634,0,0,1,6.79.888,11.434,11.434,0,0,1,11.094,0a10.838,10.838,0,0,1,4.327.888A11.163,11.163,0,0,1,18.949,3.24,11.1,11.1,0,0,1,21.3,6.79a10.89,10.89,0,0,1,.888,4.3,10.681,10.681,0,0,1-.888,4.3,11.794,11.794,0,0,1-2.352,3.55,10.467,10.467,0,0,1-3.55,2.374,11.139,11.139,0,0,1-8.609,0,10.467,10.467,0,0,1-3.55-2.374A11.794,11.794,0,0,1,.888,15.4,10.681,10.681,0,0,1,0,11.094Zm2.774,0a8.272,8.272,0,0,0,1.109,4.194,7.942,7.942,0,0,0,3.04,3.018,8.538,8.538,0,0,0,4.171,1.109,7.946,7.946,0,0,0,4.171-1.109,8.375,8.375,0,0,0,3.04-3.018,8.117,8.117,0,0,0,1.109-4.194,8,8,0,0,0-1.109-4.171,8.61,8.61,0,0,0-3.04-3.018,7.832,7.832,0,0,0-4.171-1.132A8.4,8.4,0,0,0,6.923,3.905a8.222,8.222,0,0,0-4.149,7.189Zm6.945,0V6.945a1.328,1.328,0,0,1,.4-.976,1.409,1.409,0,0,1,.976-.422,1.2,1.2,0,0,1,.976.422,1.528,1.528,0,0,1,.422.976V9.719h2.774a1.377,1.377,0,0,1,.976.4,1.224,1.224,0,0,1,.4.976,1.541,1.541,0,0,1-.4,1,1.186,1.186,0,0,1-.976.4H11.094a1.328,1.328,0,0,1-.976-.4A1.355,1.355,0,0,1,9.719,11.094Z" transform="translate(170.133 1678.244)" fill="#fff"/>
  </g>
</svg>
