<svg id="Group_1984" data-name="Group 1984" xmlns="http://www.w3.org/2000/svg" xmlns:xlink="http://www.w3.org/1999/xlink" width="103.193" height="99.742" viewBox="0 0 103.193 99.742">
  <defs>
    <clipPath id="clip-path">
      <rect id="Rectangle_924" data-name="Rectangle 924" width="103.193" height="99.742" fill="#31572c"/>
    </clipPath>
  </defs>
  <g id="Group_1983" data-name="Group 1983" clip-path="url(#clip-path)">
    <path id="Path_5963" data-name="Path 5963" d="M78.538,72.993c1.731,1.859,3.293,3.668,4.993,5.337,4.7,4.618,9.461,9.178,14.2,13.762,1.551,1.5,3.091,3.014,4.652,4.5a1.781,1.781,0,0,1,.694,2.052,1.811,1.811,0,0,1-1.954,1.093q-49.5-.009-99-.007c-1.488,0-2.286-.682-2.085-1.854a2.3,2.3,0,0,1,.641-1.173q11.681-11.333,23.4-22.627a6.358,6.358,0,0,1,.866-.6c-1.375-2.157-2.562-4.126-3.859-6.019a8,8,0,0,1-1.535-4.66q.022-22.112-.007-44.224a7.485,7.485,0,0,1,2.244-5.591c2.691-2.684,5.324-5.427,8.078-8.044A18.393,18.393,0,0,1,38.547.215,8.648,8.648,0,0,1,40.431.058C47.371.047,54.314.164,61.25.005a16.108,16.108,0,0,1,9.681,3.06A22.421,22.421,0,0,1,73.976,5.6c2.531,2.477,4.989,5.028,7.505,7.519a7.291,7.291,0,0,1,2.155,5.455q-.005,22.155-.005,44.309a7.587,7.587,0,0,1-1.348,4.294c-1.324,1.985-2.586,4.011-3.745,5.817M51.519,66.945q12.353,0,24.706,0a3.837,3.837,0,0,0,4.06-3.98q.02-22.24.014-44.479a4.3,4.3,0,0,0-1.348-3.233c-2.457-2.429-4.839-4.934-7.328-7.328a23.331,23.331,0,0,0-3.46-2.7A11.744,11.744,0,0,0,61.4,3.3c-6.909.1-13.821.018-20.732.054a8.834,8.834,0,0,0-2.7.451,15.17,15.17,0,0,0-5.8,3.488c-2.71,2.622-5.324,5.343-8,8a4.4,4.4,0,0,0-1.315,3.336q.025,22.067.011,44.134a3.887,3.887,0,0,0,4.208,4.184H51.519m24.861,3.37H26.8c1.044,1.606,1.935,3.148,3,4.559a3.678,3.678,0,0,0,3.1,1.415q18.693-.033,37.387,0a3.571,3.571,0,0,0,2.971-1.3c1.112-1.44,2.039-3.024,3.126-4.671m.708,26.073c-.75-1.328-1.479-2.534-2.118-3.786a1.283,1.283,0,0,0-1.354-.764q-16.923.03-33.845.013c-3.453,0-6.907-.023-10.36-.018-.289,0-.734.034-.843.213-.843,1.384-1.622,2.807-2.49,4.342ZM26.6,76.218,5.832,96.314a6.762,6.762,0,0,0,.709.087c5.037,0,10.074-.009,15.111.02.6,0,.79-.322,1.021-.731q3.647-6.457,7.3-12.909c.59-1.043,1.178-2.086,1.8-3.2A8.242,8.242,0,0,1,26.6,76.218M71.451,79.61a1.254,1.254,0,0,0,.067.2q4.588,8.107,9.2,16.2a1.183,1.183,0,0,0,.886.432c5.01.026,10.02.019,15.029.016.206,0,.411-.044.765-.084L76.589,76.237a8.6,8.6,0,0,1-5.138,3.372m1.176,8.906c-.619-1.1-1.207-2.048-1.7-3.046a1.343,1.343,0,0,0-1.408-.831c-5.414.029-10.829.016-16.244.016q-9.85,0-19.7.009c-.322,0-.812.029-.937.226-.732,1.151-1.379,2.356-2.1,3.626Zm-37.911-7.21H68.432c-.629-1.72-.629-1.72-2.288-1.72H37.05c-1.619,0-1.619,0-2.334,1.72" transform="translate(0 -0.001)" fill="#31572c"/>
    <path id="Path_5964" data-name="Path 5964" d="M99.78,72.787q0,4.92,0,9.84c0,1.54-.535,2.065-2.078,2.065q-9.54,0-19.08,0c-1.46,0-2.051-.573-2.052-2.022q-.007-9.84,0-19.68c0-1.505.584-2.078,2.1-2.079q9.54,0,19.08,0c1.465,0,2.03.565,2.032,2.036q.009,4.92,0,9.84m-3.395-8.482H79.965V81.344h16.42Z" transform="translate(-50.073 -39.835)" fill="#31572c"/>
    <path id="Path_5965" data-name="Path 5965" d="M154.479,72.84q0-4.963,0-9.925c0-1.4.593-2,1.988-2q9.625-.007,19.251,0c1.353,0,1.963.578,1.966,1.938q.022,9.968,0,19.937c0,1.354-.616,1.9-1.988,1.9q-9.625,0-19.251,0c-1.4,0-1.963-.577-1.965-2.011q-.005-4.92,0-9.839m3.412,8.478h16.4V64.288h-16.4Z" transform="translate(-101.029 -39.834)" fill="#31572c"/>
    <path id="Path_5966" data-name="Path 5966" d="M83.17,139.971a6.621,6.621,0,1,1,.043,13.241,6.621,6.621,0,1,1-.043-13.241m-.043,9.9a3.3,3.3,0,1,0,.131-6.588,3.295,3.295,0,0,0-.131,6.588" transform="translate(-50.077 -91.541)" fill="#31572c"/>
    <path id="Path_5967" data-name="Path 5967" d="M189.917,153.211a6.62,6.62,0,1,1,6.608-6.592,6.616,6.616,0,0,1-6.608,6.592m3.27-6.609a3.3,3.3,0,1,0-3.294,3.269,3.282,3.282,0,0,0,3.294-3.269" transform="translate(-119.867 -91.541)" fill="#31572c"/>
    <path id="Path_5968" data-name="Path 5968" d="M159.274,26.375a4.761,4.761,0,1,1,4.708-4.836,4.788,4.788,0,0,1-4.708,4.836m1.4-4.717a1.4,1.4,0,0,0-1.4-1.445,1.367,1.367,0,0,0-1.448,1.379,1.4,1.4,0,0,0,1.383,1.456,1.425,1.425,0,0,0,1.461-1.39" transform="translate(-101.03 -11.021)" fill="#31572c"/>
    <path id="Path_5969" data-name="Path 5969" d="M120.956,26.4A4.759,4.759,0,1,1,125.7,21.6a4.792,4.792,0,0,1-4.742,4.807m0-6.169a1.366,1.366,0,0,0-1.418,1.4,1.387,1.387,0,0,0,1.405,1.43,1.369,1.369,0,0,0,1.413-1.416,1.349,1.349,0,0,0-1.4-1.418" transform="translate(-75.992 -11.043)" fill="#31572c"/>
    <path id="Path_5970" data-name="Path 5970" d="M130.92,162.519c2.563,0,5.126,0,7.689,0,1.166,0,1.891.65,1.884,1.66a1.653,1.653,0,0,1-1.834,1.638q-7.818.023-15.637,0a1.657,1.657,0,1,1,.036-3.3c2.621-.006,5.241,0,7.862,0" transform="translate(-79.276 -106.287)" fill="#31572c"/>
  </g>
</svg>
