<svg id="Group_2062" data-name="Group 2062" xmlns="http://www.w3.org/2000/svg" xmlns:xlink="http://www.w3.org/1999/xlink" width="18.232" height="27.637" viewBox="0 0 18.232 27.637">
  <defs>
    <clipPath id="clip-path">
      <rect id="Rectangle_975" data-name="Rectangle 975" width="18.232" height="27.637" fill="#fff"/>
    </clipPath>
  </defs>
  <g id="Group_2061" data-name="Group 2061" clip-path="url(#clip-path)">
    <path id="Path_5989" data-name="Path 5989" d="M8.767,0a9.223,9.223,0,0,1,9.368,7.8,8.993,8.993,0,0,1-.407,4.3,1.816,1.816,0,0,1-.115.251q-3.96,7.415-7.919,14.83c-.128.24-.264.455-.571.458s-.458-.21-.59-.457Q4.606,19.816.673,12.456a5.782,5.782,0,0,1-.564-1.934,8.863,8.863,0,0,1,2.2-7.451A8.764,8.764,0,0,1,8.767,0m.347,25.909c.043-.076.075-.129.1-.183q3.7-6.918,7.393-13.836a1.411,1.411,0,0,0,.1-.22,7.864,7.864,0,0,0,.138-4.622A7.914,7.914,0,0,0,9.643,1.14,7.709,7.709,0,0,0,2.89,4.1a7.739,7.739,0,0,0-1.671,6.347,4.633,4.633,0,0,0,.411,1.439Q5.3,18.815,9.01,25.724c.029.055.061.108.1.185" transform="translate(0)" fill="#fff"/>
    <path id="Path_5990" data-name="Path 5990" d="M63.374,69.9a5.072,5.072,0,1,1,5.085-5.058A5.073,5.073,0,0,1,63.374,69.9m.006-1.1a3.967,3.967,0,1,0-3.964-3.969A3.962,3.962,0,0,0,63.38,68.8" transform="translate(-54.267 -55.612)" fill="#fff"/>
  </g>
</svg>
