<svg id="Group_1980" data-name="Group 1980" xmlns="http://www.w3.org/2000/svg" xmlns:xlink="http://www.w3.org/1999/xlink" width="135.175" height="106.524" viewBox="0 0 135.175 106.524">
  <defs>
    <clipPath id="clip-path">
      <rect id="Rectangle_922" data-name="Rectangle 922" width="135.175" height="106.524" fill="#31572c"/>
    </clipPath>
  </defs>
  <g id="Group_1979" data-name="Group 1979" clip-path="url(#clip-path)">
    <path id="Path_5952" data-name="Path 5952" d="M.426,106.524c-.136-1.466-.272-2.932-.426-4.6H8.932V26.493H44.467c2.066,0,2.067,0,2.067-2.135q0-4.276,0-8.55c0-1.913,0-1.914,1.985-1.916,2.4,0,4.8.022,7.2-.006,3.134-.036,6.268-.112,9.4-.171.076-3.179.162-6.358.225-9.537.026-1.347,0-2.695,0-4.178h4.5V1.627c0,3.35-.01,6.7,0,10.05.01,2.512-.231,2.2,2.282,2.21,4.848.014,9.7,0,14.543,0,1.982,0,1.984,0,1.986,1.916q0,4.276,0,8.55c0,2.133,0,2.135,2.068,2.135H126.16v75.336h9.015c-.147,1.706-.276,3.2-.405,4.7ZM84.167,18.388H53.043c-2.012,0-2.014,0-2.014,2.037q0,39.665,0,79.33a4.889,4.889,0,0,0,.043,1.341c.086.295.442.718.69.725,1.877.061,3.756.034,5.843.034V63.075H77.716v38.8h4.4c2.045,0,2.048,0,2.048-2q0-39.74,0-79.48ZM13.573,101.772c.478.038.865.1,1.251.1,10.09.005,20.18-.023,30.269.036,1.434.008,1.456-.676,1.455-1.741q-.027-33.732.017-67.464c0-1.4-.409-1.747-1.765-1.739-9.84.054-19.679.029-29.519.029H13.573Zm108.072,0c.03-.6.077-1.084.077-1.574q.006-33.732.031-67.464c0-1.347-.322-1.785-1.735-1.776q-14.759.093-29.519-.008c-1.591-.013-1.87.495-1.867,1.948q.065,33.507.03,67.015v1.86ZM73,101.8a4.641,4.641,0,0,0,.123-.69q.013-16.255.031-32.51c0-.959-.4-1.175-1.258-1.164-2.745.036-5.494.089-8.234-.02-1.379-.055-1.645.453-1.639,1.715.045,10.387.025,20.774.03,31.161,0,.481.058.962.093,1.508Z" fill="#31572c"/>
    <path id="Path_5953" data-name="Path 5953" d="M97.37,43.96a17.359,17.359,0,0,1-6.981,14.162c-3.728,2.981-2.438,2.977-6.143.014-4.724-3.778-7.239-8.663-6.994-14.837a2.12,2.12,0,0,1,1.407-2.166c2.561-1.115,5.047-2.4,7.613-3.506a2.9,2.9,0,0,1,2.056-.008c2.3.968,4.485,2.2,6.8,3.108,1.768.69,2.6,1.7,2.239,3.232M87.306,54.878a13.668,13.668,0,0,0,5.448-8.591,1.717,1.717,0,0,0-1.124-2.215c-4.338-1.963-4.3-1.964-8.63-.005a1.72,1.72,0,0,0-1.14,2.207,13.7,13.7,0,0,0,5.446,8.6" transform="translate(-19.711 -9.554)" fill="#31572c"/>
    <path id="Path_5954" data-name="Path 5954" d="M26.947,70.03a11.276,11.276,0,0,1-.121-1.165c-.008-5.8,0-11.6-.011-17.4,0-.751-.016-1.363,1.054-1.356,6.045.034,12.09.017,18.135.027a4.915,4.915,0,0,1,.862.183v3.886q0,7.273.005,14.547c0,.806.019,1.449-1.13,1.441-6.045-.042-12.09-.022-18.136-.031a3.7,3.7,0,0,1-.659-.136m4.379-15.4c0,3.568-.023,6.909.042,10.247.005.274.609.763.942.77,3,.06,6,.023,8.994.045.752.006,1.08-.252,1.073-1.04-.026-3,.02-6-.05-9-.008-.348-.565-.972-.879-.979-3.288-.072-6.579-.045-10.123-.045" transform="translate(-6.843 -12.789)" fill="#31572c"/>
    <path id="Path_5955" data-name="Path 5955" d="M26.813,104.379v-5.6c0-4.3.036-8.6-.023-12.9-.015-1.135.357-1.447,1.461-1.438,5.746.048,11.493.019,17.24.027.623,0,1.367-.163,1.366.877-.008,6.294,0,12.589,0,19.029Zm15.542-4.431c0-3.472.027-6.805-.048-10.136-.006-.289-.67-.792-1.046-.807-1.939-.083-3.883-.041-5.827-.041-4.126,0-4.126,0-4.126,4.1v6.883Z" transform="translate(-6.837 -21.551)" fill="#31572c"/>
    <path id="Path_5956" data-name="Path 5956" d="M147.688,70.238h-7.131q-5.7,0-11.391,0c-.717,0-1.4.08-1.392-1.017.028-6.243.013-12.487.013-18.884h19.9Zm-4.365-15.554c-3.553,0-6.844-.028-10.133.045-.31.007-.861.638-.869.989-.069,3-.023,6-.049,9-.007.8.341,1.035,1.083,1.03,3-.022,6,.016,8.993-.046.33-.007.927-.5.932-.779.066-3.337.042-6.676.042-10.237" transform="translate(-32.608 -12.846)" fill="#31572c"/>
    <path id="Path_5957" data-name="Path 5957" d="M147.716,104.427H127.785v-3.062q0-7.724,0-15.449c0-.789-.053-1.468,1.111-1.461,6.046.039,12.092.021,18.138.03a4.079,4.079,0,0,1,.686.134Zm-15.428-4.408c3.527,0,6.9.019,10.272-.036a1.127,1.127,0,0,0,.736-.812c.054-3.089.059-6.18,0-9.268a1.239,1.239,0,0,0-.823-.887q-4.631-.1-9.263,0a1.236,1.236,0,0,0-.878.83c-.063,3.327-.04,6.656-.04,10.178" transform="translate(-32.61 -21.553)" fill="#31572c"/>
  </g>
</svg>
