<svg xmlns="http://www.w3.org/2000/svg" xmlns:xlink="http://www.w3.org/1999/xlink" width="24.739" height="24.746" viewBox="0 0 24.739 24.746">
  <defs>
    <clipPath id="clip-path">
      <rect id="Rectangle_974" data-name="Rectangle 974" width="24.739" height="24.746" fill="#fff"/>
    </clipPath>
  </defs>
  <g id="Group_2060" data-name="Group 2060" transform="translate(0 -26.099)">
    <g id="Group_2059" data-name="Group 2059" transform="translate(0 26.099)" clip-path="url(#clip-path)">
      <path id="Path_5985" data-name="Path 5985" d="M0,36.446a5.181,5.181,0,0,1,1.6-3.82c.411-.409.829-.812,1.245-1.217a1.287,1.287,0,0,1,1.952.022q1.9,1.939,3.78,3.888c.14.144.281.288.419.433a1.283,1.283,0,0,1-.021,1.89c-.357.358-.71.723-1.091,1.054a1.574,1.574,0,0,0-.421,2.048,6.965,6.965,0,0,0,1.574,2.172c.6.6,1.2,1.2,1.835,1.757a3.5,3.5,0,0,0,1.7.884,1.355,1.355,0,0,0,1.228-.375c.415-.395.823-.8,1.233-1.2A1.3,1.3,0,0,1,17.018,44q2.071,2.126,4.136,4.258a1.285,1.285,0,0,1-.021,1.984c-.543.529-1.075,1.076-1.666,1.548a5.39,5.39,0,0,1-4.866.961A13,13,0,0,1,10,50.469a29.229,29.229,0,0,1-3.743-3.3,37.849,37.849,0,0,1-3.3-3.689A16.273,16.273,0,0,1,.436,38.939,7.969,7.969,0,0,1,0,36.446m1.2.008a6.128,6.128,0,0,0,.3,1.932,14.814,14.814,0,0,0,2.44,4.428,38,38,0,0,0,3.267,3.628A26.132,26.132,0,0,0,10.964,49.7a11.329,11.329,0,0,0,3.927,1.9,4.377,4.377,0,0,0,3.953-.819c.527-.433,1-.935,1.5-1.4.115-.108.065-.187-.025-.279q-2.073-2.123-4.141-4.252c-.125-.129-.207-.12-.328,0q-.606.608-1.228,1.2a2.466,2.466,0,0,1-2.361.664,5.152,5.152,0,0,1-1.925-.948,18.8,18.8,0,0,1-2.478-2.373,7.439,7.439,0,0,1-1.514-2.242,2.652,2.652,0,0,1,.653-3.23c.366-.36.731-.721,1.1-1.074.117-.111.127-.187.008-.308q-2.074-2.123-4.138-4.256c-.112-.116-.194-.127-.313-.009-.39.388-.792.765-1.183,1.152A4.061,4.061,0,0,0,1.2,36.454" transform="translate(-0.001 -28.206)" fill="#fff"/>
      <path id="Path_5986" data-name="Path 5986" d="M134.5,12.819c0,.186,0,.372,0,.558a.6.6,0,0,1-.567.6.581.581,0,0,1-.6-.537c-.048-.533-.062-1.069-.12-1.6a11.558,11.558,0,0,0-2.517-6.094,11.922,11.922,0,0,0-7.655-4.416c-.614-.1-1.243-.112-1.866-.151-.4-.025-.652-.249-.646-.61A.581.581,0,0,1,121.178,0a13.131,13.131,0,0,1,11.59,6.723,12.934,12.934,0,0,1,1.729,6.1" transform="translate(-109.761 0.001)" fill="#fff"/>
      <path id="Path_5987" data-name="Path 5987" d="M121.8,41.24a9,9,0,0,1,7.483,4.034,8.783,8.783,0,0,1,1.451,4.142c.047.495.053.994.054,1.491a.589.589,0,1,1-1.171-.037,8.439,8.439,0,0,0-.929-4.263,7.629,7.629,0,0,0-5.306-3.989,8.643,8.643,0,0,0-2.215-.19.6.6,0,0,1-.658-.553.587.587,0,0,1,.6-.633c.23-.011.461,0,.691,0" transform="translate(-109.748 -37.554)" fill="#fff"/>
      <path id="Path_5988" data-name="Path 5988" d="M129.5,87.236a4.037,4.037,0,0,1,3.9,4.976.581.581,0,0,1-.741.511.589.589,0,0,1-.416-.768,2.817,2.817,0,0,0-3.362-3.429.628.628,0,0,1-.773-.268.572.572,0,0,1,.343-.842c.344-.086.7-.123,1.05-.181" transform="translate(-116.601 -79.447)" fill="#fff"/>
    </g>
  </g>
</svg>
