<svg id="Group_1976" data-name="Group 1976" xmlns="http://www.w3.org/2000/svg" xmlns:xlink="http://www.w3.org/1999/xlink" width="113.624" height="112.5" viewBox="0 0 113.624 112.5">
  <defs>
    <clipPath id="clip-path">
      <rect id="Rectangle_920" data-name="Rectangle 920" width="113.624" height="112.5" fill="#31572c"/>
    </clipPath>
  </defs>
  <g id="Group_1975" data-name="Group 1975" clip-path="url(#clip-path)">
    <path id="Path_5939" data-name="Path 5939" d="M99.065,50.565c2.995,0,5.743-.005,8.492,0,1.582,0,2.17.55,2.275,2.127q.95,14.28,1.891,28.56.9,13.57,1.818,27.14c.048.725.081,1.452.083,2.178a1.744,1.744,0,0,1-1.857,1.92c-.253.012-.506.005-.759.005q-41.336,0-82.672,0-13.016,0-26.032-.008c-1.8,0-2.433-.592-2.283-2.41.288-3.493.665-6.98,1.009-10.469q.9-9.146,1.813-18.291Q3.851,71.138,4.858,60.954q.9-9.1,1.786-18.2.9-9.146,1.815-18.291c.062-.629.106-1.26.188-1.886.213-1.611.776-2.1,2.438-2.1q6.495-.007,12.989,0h1.2a37.593,37.593,0,0,1,.03-4.159,20.79,20.79,0,0,1,1-5.355C28.875,4.55,33.849,1.131,40.585.167a18.127,18.127,0,0,1,8.934,1.074,1.954,1.954,0,0,0,1.151-.108C57.943-1.2,64.467.023,70.018,5.372a15.162,15.162,0,0,1,4.618,11.351c0,1.2,0,2.4,0,3.754h1.145q7.062,0,14.126,0c1.789,0,2.353.554,2.473,2.352.345,5.169.688,10.339,1.072,15.506a1.587,1.587,0,0,0,.607,1.036,10.94,10.94,0,0,1,5.005,9.56c-.006.525,0,1.05,0,1.633M23.646,24.188q2.8,42.412,5.595,84.593H46.987c.1-.932.182-1.807.275-2.682Q48.745,92.252,50.228,78.4,51.6,65.5,52.946,52.59c.154-1.452.772-2.014,2.218-2.021,2.465-.012,4.93,0,7.394-.006.334,0,.667-.028,1.088-.047,0-.686.005-1.281,0-1.876A10.227,10.227,0,0,1,65.5,42.488a12.245,12.245,0,0,1,15.105-3.993,1.812,1.812,0,0,0,1.486.009A23.435,23.435,0,0,1,86.1,37.483a25.766,25.766,0,0,1,3.59-.035c-.28-4.255-.564-8.474-.827-12.694-.042-.677-.48-.612-.928-.612q-6.209,0-12.419,0c-.271,0-.542.047-.883.079v1.107c0,2.655,0,5.309,0,7.963,0,1.535-.654,2.372-1.825,2.385s-1.853-.849-1.856-2.35c0-2.149,0-4.3,0-6.447V24.205H43.239V25.29q0,4.076,0,8.152c0,1.4-.721,2.256-1.868,2.24-1.116-.016-1.775-.82-1.778-2.214-.008-2.781-.032-5.562.016-8.342.014-.807-.252-1-1.022-1-4.645.032-9.29.015-13.935.017-.28,0-.561.023-1,.043M64.537,54.242c1.2,18.239,2.4,36.381,3.6,54.534H109.88q-1.8-27.324-3.6-54.513H99.061c0,.47,0,.875,0,1.281-.007,1.421.024,2.844-.039,4.264a1.742,1.742,0,0,1-1.739,1.662,1.806,1.806,0,0,1-1.852-1.558,7.689,7.689,0,0,1-.033-1.136q0-2.256,0-4.521H79.036v.983c0,1.264,0,2.528,0,3.791,0,1.568-.685,2.451-1.874,2.441s-1.819-.868-1.824-2.481c0-.379,0-.759,0-1.138v-3.61ZM25.55,108.666c-.267-4.147-.517-8.083-.776-12.019q-.722-10.969-1.453-21.938-.6-9.125-1.2-18.251Q21.4,45.535,20.671,34.614c-.21-3.184-.4-6.369-.642-9.551-.024-.316-.338-.87-.528-.874-2.422-.06-4.846-.039-7.348-.039Q7.969,66.543,3.814,108.666Zm30.9-54.435q-2.9,27.311-5.79,54.563H64.472q-1.8-27.327-3.6-54.563ZM45.61,4.054C36.284,1.306,27.17,10.447,29.1,20.427H39.695c-.734-6.39.59-12.06,5.915-16.373M70.825,20.426c.658-5.768-.4-10.77-5.5-14.231-3.129-2.123-7.863-3.083-10.928-2.08,5.228,4.25,6.507,9.937,5.847,16.31Zm-14.133-.032c0-1.241.005-2.462,0-3.684A12.41,12.41,0,0,0,50.644,5.9a1.094,1.094,0,0,0-1.358-.011,13.557,13.557,0,0,0-5.9,14.581q6.415,0,12.853,0a3.269,3.269,0,0,0,.451-.076m18.474,30.13a30.6,30.6,0,0,1,.611-4.874,28.4,28.4,0,0,1,2-4.291C72.2,39.771,66.123,44,67.457,50.524Zm15.375-.02c-.19-2.923-.37-5.777-.575-8.631a.663.663,0,0,0-.33-.5,8.641,8.641,0,0,0-4.685-.035,31.13,31.13,0,0,1,2,4.448A29.621,29.621,0,0,1,87.52,50.5Zm-6.935.022c.252-2.788-.048-5.293-2.274-7.221-2.2,2.017-2.553,4.494-2.2,7.221Zm10.617-.03h1.1c.289-2.451-.131-5.208-1.507-6.147.137,2.065.271,4.075.408,6.147" transform="translate(0 0)" fill="#31572c"/>
  </g>
</svg>
