<svg xmlns="http://www.w3.org/2000/svg" xmlns:xlink="http://www.w3.org/1999/xlink" width="86.252" height="83.367" viewBox="0 0 86.252 83.367">
  <defs>
    <clipPath id="clip-path">
      <rect id="Rectangle_924" data-name="Rectangle 924" width="86.252" height="83.367" fill="#31572c"/>
    </clipPath>
  </defs>
  <g id="Group_1983" data-name="Group 1983" clip-path="url(#clip-path)">
    <path id="Path_5963" data-name="Path 5963" d="M65.644,61.01c1.447,1.554,2.753,3.066,4.173,4.461,3.93,3.86,7.908,7.671,11.866,11.5,1.3,1.255,2.584,2.52,3.889,3.765a1.489,1.489,0,0,1,.58,1.715,1.514,1.514,0,0,1-1.633.914q-41.376-.008-82.751-.006c-1.244,0-1.911-.57-1.743-1.55a1.92,1.92,0,0,1,.536-.981q9.763-9.473,19.558-18.913a5.314,5.314,0,0,1,.724-.5c-1.15-1.8-2.141-3.448-3.225-5.031a6.689,6.689,0,0,1-1.283-3.895q.019-18.482-.005-36.963a6.256,6.256,0,0,1,1.876-4.673c2.249-2.243,4.45-4.536,6.752-6.724A15.374,15.374,0,0,1,32.219.18,7.228,7.228,0,0,1,33.794.048C39.594.04,45.4.137,51.195,0a13.464,13.464,0,0,1,8.092,2.557,18.74,18.74,0,0,1,2.544,2.119c2.115,2.07,4.17,4.2,6.273,6.284a6.094,6.094,0,0,1,1.8,4.559q0,18.518,0,37.035a6.342,6.342,0,0,1-1.126,3.589c-1.107,1.659-2.162,3.353-3.13,4.862M43.061,55.955q10.325,0,20.65,0a3.207,3.207,0,0,0,3.394-3.327q.016-18.589.012-37.177a3.594,3.594,0,0,0-1.127-2.7c-2.053-2.03-4.044-4.124-6.125-6.125a19.5,19.5,0,0,0-2.892-2.253A9.816,9.816,0,0,0,51.319,2.76c-5.775.082-11.552.015-17.328.045a7.383,7.383,0,0,0-2.255.377A12.679,12.679,0,0,0,26.889,6.1c-2.265,2.192-4.45,4.466-6.689,6.684a3.678,3.678,0,0,0-1.1,2.788q.021,18.444.009,36.888a3.249,3.249,0,0,0,3.518,3.5H43.061m20.78,2.817H22.4c.872,1.342,1.617,2.631,2.508,3.81A3.074,3.074,0,0,0,27.5,63.764q15.624-.028,31.249,0a2.985,2.985,0,0,0,2.483-1.089c.929-1.2,1.7-2.527,2.613-3.9m.592,21.793c-.627-1.11-1.236-2.118-1.77-3.164a1.073,1.073,0,0,0-1.132-.639q-14.144.025-28.289.011c-2.886,0-5.773-.019-8.659-.015-.242,0-.613.029-.7.178-.7,1.157-1.355,2.346-2.081,3.629Zm-42.2-16.859L4.874,80.5a5.653,5.653,0,0,0,.593.073c4.21,0,8.42-.008,12.63.016.5,0,.661-.27.854-.611q3.048-5.4,6.1-10.789c.493-.871.984-1.744,1.508-2.672a6.889,6.889,0,0,1-4.331-2.814M59.721,66.54a1.048,1.048,0,0,0,.056.167q3.835,6.776,7.689,13.541a.988.988,0,0,0,.741.361c4.187.022,8.375.016,12.562.013.172,0,.344-.036.64-.07L64.016,63.722a7.19,7.19,0,0,1-4.295,2.819m.983,7.444c-.517-.915-1.009-1.711-1.423-2.546a1.122,1.122,0,0,0-1.177-.695c-4.525.025-9.051.014-13.577.014q-8.233,0-16.466.008c-.269,0-.678.024-.783.189-.612.962-1.152,1.969-1.757,3.031ZM29.017,67.958H57.2c-.526-1.438-.526-1.438-1.912-1.438H30.968c-1.353,0-1.353,0-1.951,1.438" transform="translate(0 -0.001)" fill="#31572c"/>
    <path id="Path_5964" data-name="Path 5964" d="M95.969,70.837q0,4.112,0,8.225c0,1.287-.447,1.726-1.737,1.726q-7.974,0-15.948,0c-1.22,0-1.714-.479-1.715-1.69q-.006-8.225,0-16.449c0-1.258.488-1.737,1.753-1.738q7.974,0,15.948,0c1.224,0,1.7.472,1.7,1.7q.007,4.112,0,8.225m-2.837-7.089H79.407V77.989H93.132Z" transform="translate(-54.422 -43.294)" fill="#31572c"/>
    <path id="Path_5965" data-name="Path 5965" d="M154.479,70.881q0-4.148,0-8.3c0-1.17.5-1.674,1.662-1.674q8.045-.006,16.09,0c1.13,0,1.641.483,1.644,1.62q.018,8.332,0,16.664c0,1.132-.514,1.591-1.662,1.591q-8.045,0-16.09,0c-1.171,0-1.641-.483-1.642-1.681q0-4.112,0-8.224m2.852,7.086h13.7V63.733h-13.7Z" transform="translate(-109.804 -43.293)" fill="#31572c"/>
    <path id="Path_5966" data-name="Path 5966" d="M82.087,139.971a5.534,5.534,0,1,1,.036,11.068,5.534,5.534,0,1,1-.036-11.068m-.036,8.274a2.754,2.754,0,1,0,.11-5.507,2.754,2.754,0,0,0-.11,5.507" transform="translate(-54.426 -99.491)" fill="#31572c"/>
    <path id="Path_5967" data-name="Path 5967" d="M188.828,151.038a5.534,5.534,0,1,1,5.523-5.51,5.53,5.53,0,0,1-5.523,5.51m2.734-5.524a2.755,2.755,0,1,0-2.753,2.733,2.743,2.743,0,0,0,2.753-2.733" transform="translate(-130.278 -99.491)" fill="#31572c"/>
    <path id="Path_5968" data-name="Path 5968" d="M158.487,24.812a3.98,3.98,0,1,1,3.935-4.042,4,4,0,0,1-3.935,4.042m1.167-3.943a1.168,1.168,0,0,0-1.167-1.208,1.142,1.142,0,0,0-1.211,1.152,1.168,1.168,0,0,0,1.156,1.217,1.191,1.191,0,0,0,1.221-1.162" transform="translate(-109.804 -11.979)" fill="#31572c"/>
    <path id="Path_5969" data-name="Path 5969" d="M120.175,24.842a3.978,3.978,0,1,1,3.963-4.018,4.006,4.006,0,0,1-3.963,4.018m0-5.156a1.142,1.142,0,0,0-1.185,1.174,1.159,1.159,0,0,0,1.174,1.195,1.144,1.144,0,0,0,1.181-1.184,1.128,1.128,0,0,0-1.17-1.185" transform="translate(-82.592 -12.003)" fill="#31572c"/>
    <path id="Path_5970" data-name="Path 5970" d="M129.328,162.519c2.142,0,4.284,0,6.427,0,.974,0,1.581.544,1.575,1.388a1.382,1.382,0,0,1-1.533,1.369q-6.535.019-13.07,0a1.385,1.385,0,1,1,.03-2.757c2.19-.005,4.381,0,6.571,0" transform="translate(-86.162 -115.518)" fill="#31572c"/>
  </g>
</svg>
