<svg xmlns="http://www.w3.org/2000/svg" width="47" height="47" viewBox="0 0 47 47">
  <g id="Group_2346" data-name="Group 2346" transform="translate(-0.139)">
    <circle id="Ellipse_2" data-name="Ellipse 2" cx="23.5" cy="23.5" r="23.5" transform="translate(0.139)" fill="#31572C"/>
    <g id="Page-1" transform="translate(11.628 11.49)">
      <g id="Dribbble-Light-Preview" transform="translate(0 0)">
        <g id="icons">
          <path id="whatsapp-_128_" data-name="whatsapp-[#128]" d="M263,7455.959a3.389,3.389,0,0,1-2.358,1.7c-.628.132-1.447.239-4.207-.906-3.1-1.284-7.4-5.859-7.4-8.9,0-1.549.894-3.354,2.456-3.354.752,0,.918.014,1.165.607.289.7,1,2.422,1.08,2.6.347.724-.353,1.147-.861,1.779-.162.19-.346.4-.141.749a10.681,10.681,0,0,0,1.948,2.42,8.825,8.825,0,0,0,2.816,1.738.76.76,0,0,0,.847-.133,15.349,15.349,0,0,0,.939-1.244.669.669,0,0,1,.861-.261,24.546,24.546,0,0,1,3.063,1.545,2.972,2.972,0,0,1-.2,1.666M256.013,7439h-.006a12,12,0,0,0-9.72,19.049l-1.5,4.462,4.616-1.474A12.009,12.009,0,1,0,256.013,7439" transform="translate(-244 -7439)" fill="#fff" fill-rule="evenodd"/>
        </g>
      </g>
    </g>
  </g>
</svg>
