<svg id="Group_1865" data-name="Group 1865" xmlns="http://www.w3.org/2000/svg" width="104.874" height="104.873" viewBox="0 0 104.874 104.873">
  <path id="Path_5808" data-name="Path 5808" d="M52.437,8.453A52.437,52.437,0,1,0,104.873,60.89,52.437,52.437,0,0,0,52.437,8.453m2.816,88.109c-.951.012-1.9,0-2.853,0-.924,0-1.849.007-2.772,0-1-.009-1.538-.474-1.528-1.29.009-.784.539-1.249,1.483-1.255q2.853-.016,5.707,0c.912.007,1.471.521,1.46,1.289s-.567,1.242-1.5,1.253m3.193-3.68c-2.01.005-4.019,0-6.029,0-2.036,0-4.074.005-6.11,0-.949,0-1.439-.45-1.429-1.267s.489-1.227,1.464-1.229q6.07-.005,12.139,0c.965,0,1.462.421,1.476,1.223.015.83-.5,1.271-1.513,1.274m1.227-3.642c-.163,0-.326,0-.489,0H52.346q-3.583,0-7.164,0c-1,0-1.576-.456-1.6-1.23-.024-.794.594-1.311,1.612-1.313q7.245-.007,14.491,0c.975,0,1.56.5,1.554,1.282s-.582,1.248-1.567,1.261m0-3.684q-7.284.01-14.567,0c-.974,0-1.555-.52-1.525-1.3.03-.757.58-1.2,1.528-1.205,2.441-.006,4.883,0,7.324,0q3.621,0,7.244,0c1,0,1.561.46,1.561,1.249s-.559,1.251-1.565,1.253M70.824,64.239c-.786.9-1.52,1.847-2.237,2.8A14.677,14.677,0,0,0,65.535,74.9c-.2,2.72-1.8,4.725-3.609,6.566a2.08,2.08,0,0,1-1.345.419c-2.717.038-5.435.018-8.153.018-2.691,0-5.382-.015-8.072.011A2.339,2.339,0,0,1,42.5,81.1a11.638,11.638,0,0,1-3.374-7.389,12.024,12.024,0,0,0-2.539-6.183c-.956-1.319-1.977-2.593-3.021-3.844-3.594-4.3-4.536-9.346-4.094-14.75a22.579,22.579,0,0,1,18.96-20.111c12.656-2.15,24.548,6.05,26.668,18.232,1.093,6.287.1,12.182-4.273,17.181" transform="translate(0 -8.453)" fill="#242424"/>
  <path id="Path_5809" data-name="Path 5809" d="M78.37,71.055A2.57,2.57,0,0,0,76.4,73.316c-.156,1.292-.244,2.6-.28,3.9-.016.6-.209.83-.794.819-1.054-.022-2.109-.023-3.164-.012-.534.006-.666-.25-.689-.751-.065-1.355-.12-2.718-.314-4.057a2.7,2.7,0,0,0-2.848-2.275A2.757,2.757,0,0,0,65.452,73.3,3.787,3.787,0,0,0,66.6,76.875a14.858,14.858,0,0,0,2.99,1.889c.433.23.656.4.684.919.238,4.366.507,8.73.769,13.1.113,1.891.229,3.783.346,5.711h1.321c-.37-6.425-.734-12.771-1.1-19.083h4.37q-.551,9.572-1.1,19.073H76.2c.067-1.021.136-1.991.193-2.963.308-5.205.624-10.41.9-15.617a1.139,1.139,0,0,1,.9-1.189,5.564,5.564,0,0,0,3.8-3.513,3.188,3.188,0,0,0-.605-3.421,2.888,2.888,0,0,0-3.015-.721M66.751,73.908a1.535,1.535,0,0,1,1.433-1.65,1.5,1.5,0,0,1,1.7,1.367c.129,1.258.176,2.525.264,3.871-2.108-.6-3.4-2.007-3.4-3.588m10.7,3.551c.089-1.338.129-2.656.279-3.961a1.49,1.49,0,0,1,1.728-1.237,1.525,1.525,0,0,1,1.388,1.526,3.954,3.954,0,0,1-3.4,3.672" transform="translate(-21.368 -28.864)" fill="#242424"/>
</svg>
