<svg xmlns="http://www.w3.org/2000/svg" width="104.874" height="104.874" viewBox="0 0 104.874 104.874">
  <path id="Path_5810" data-name="Path 5810" d="M326.666,0A52.437,52.437,0,1,0,379.1,52.436,52.437,52.437,0,0,0,326.666,0M308.73,75.46c-.012,2.391-1.4,3.674-3.781,3.828-.742.048-1.49.022-2.234.015-3.455-.034-4.689-1.26-4.7-4.737-.017-4.99,0-9.981,0-14.972,0-5.139-.028-10.279.011-15.418.023-2.906,1.358-4.208,4.246-4.286.893-.025,1.79-.043,2.681.012,2.378.147,3.769,1.435,3.781,3.826q.078,15.865,0,31.731m14.328.1c-.018,2.269-1.4,3.548-3.652,3.717-.889.067-1.786.038-2.679.02-3.043-.063-4.344-1.337-4.372-4.384-.036-3.872-.009-7.743-.008-11.615,0-4.02-.036-8.041.013-12.062.034-2.78,1.367-4.086,4.12-4.18a27.833,27.833,0,0,1,2.9.015c2.258.16,3.655,1.435,3.674,3.695q.1,12.4,0,24.793m14.349-.2c-.064,2.5-1.411,3.8-3.914,3.923a26.421,26.421,0,0,1-3.124-.012,3.529,3.529,0,0,1-3.653-3.711q-.114-8.817,0-17.635c.03-2.257,1.418-3.531,3.674-3.69a27.98,27.98,0,0,1,2.9-.015c2.753.094,4.072,1.4,4.124,4.176.05,2.752.011,5.506.009,8.259,0,2.9.055,5.806-.019,8.706m14.328.186a3.578,3.578,0,0,1-3.643,3.723,25.069,25.069,0,0,1-3.343,0c-2.263-.145-3.632-1.415-3.7-3.664q-.148-5.237,0-10.48c.063-2.356,1.451-3.609,3.859-3.736.964-.05,1.934-.048,2.9,0,2.508.118,3.835,1.408,3.938,3.9.069,1.633.013,3.27.01,4.906,0,1.784.067,3.571-.02,5.351m3.516-27.825c-.459,2.185-2.414,3.175-5.076,2.637a68.5,68.5,0,0,1-23.906-10.182c-2.164-1.411-4.291-2.88-6.457-4.337l-4.049,4.823-6.988-18.7,19.684,3.307-4.051,4.98c8.471,6.016,17.2,11.035,27.338,13.165,2.629.552,3.932,2.275,3.505,4.306" transform="translate(-274.229)" fill="#242424"/>
</svg>
