<svg id="Group_1982" data-name="Group 1982" xmlns="http://www.w3.org/2000/svg" xmlns:xlink="http://www.w3.org/1999/xlink" width="101.398" height="104.889" viewBox="0 0 101.398 104.889">
  <defs>
    <clipPath id="clip-path">
      <rect id="Rectangle_923" data-name="Rectangle 923" width="101.398" height="104.889" fill="#31572c"/>
    </clipPath>
  </defs>
  <g id="Group_1981" data-name="Group 1981" clip-path="url(#clip-path)">
    <path id="Path_5958" data-name="Path 5958" d="M51.8,0H73.522c.128.145.248.3.385.435Q79.163,5.7,84.422,10.953q3.65,3.651,7.3,7.307c.139.139.327.365.3.512a4.026,4.026,0,0,1-.471,1.5,2.708,2.708,0,0,0-.469,1.542c-.019.57-.046,1.141-.046,1.711q-.031,16.051-.044,32.1a1.025,1.025,0,0,0,.274.64c.939.977,1.913,1.921,2.857,2.892,1.454,1.5,2.923,2.979,4.327,4.52.784.86.71,1.5-.128,2.322a1.179,1.179,0,0,0-.389.929q.015,16.907.008,33.813v.614c.652.03,1.254.039,1.852.088a1.72,1.72,0,0,1,1.61,1.735,2.019,2.019,0,0,1-1.791,1.7H1.862a1.816,1.816,0,0,1-.374-.005.951.951,0,0,1-.423-.162A2.883,2.883,0,0,1,0,103.169v-.106c.437-2.007,2.084-1.6,3.519-1.681v-.738q0-13.188-.008-26.376a1.271,1.271,0,0,1,.371-.946c.876-.938,1.7-1.922,2.6-2.84A1.78,1.78,0,0,0,7,69.1c-.017-4.779-.033-9.559,0-14.338.032-5.153.118-10.306.169-15.46a1.662,1.662,0,0,1,.486-1.2q7.985-8.35,15.96-16.711a1.336,1.336,0,0,1,1.04-.431c3.245-.019,6.49-.055,9.736-.085.208,0,.416,0,.68,0,0-.9.029-1.734-.011-2.567a1.534,1.534,0,0,1,.486-1.224Q43.679,8.557,51.8,0m7.688,49.8c-.1.1-.184.163-.255.238Q52.5,57.147,45.787,64.273a1.265,1.265,0,0,0-.28.8q-.02,17.846-.012,35.692v.588h6.964V85.425q0-3.479,0-6.957a1.8,1.8,0,0,1,1.519-1.538H64.787a1.626,1.626,0,0,1,1.6,1.586v22.848h6.943c.01-.222.027-.413.026-.6q-.013-17.926-.041-35.852a1.336,1.336,0,0,0-.33-.833q-5.274-5.617-10.581-11.2c-.967-1.021-1.937-2.039-2.923-3.077M24.365,25.479c.043-.039-.024.015-.083.076q-6.79,7.166-13.57,14.341a.967.967,0,0,0-.221.611q-.016,12.655-.007,25.311a2.27,2.27,0,0,0,.053.339c.167-.159.3-.277.425-.4q4.528-4.7,9.047-9.412a1.284,1.284,0,0,1,1.026-.423q8.4.02,16.8.009h.673c.012-.176.023-.264.023-.353q0-7.544-.012-15.089a1.117,1.117,0,0,0-.3-.686q-5.7-6.056-11.439-12.085c-.748-.784-1.59-1.478-2.412-2.234M94.436,66.392H77.094v34.972H94.436Zm-73.4-6.142c-.115.11-.221.2-.317.3q-6.725,7.114-13.439,14.24a1.2,1.2,0,0,0-.282.75Q6.976,88.2,6.987,100.85c0,.169.021.338.032.509h6.934c0-.266,0-.494,0-.722.021-5.564.035-11.128.071-16.692a16.642,16.642,0,0,1,.19-2.341c.119-.8.384-.993,1.174-1.022.874-.031,1.747-.08,2.62-.072,2.8.023,5.6.056,8.4.113,1.125.023,1.323.2,1.47,1.321a19.734,19.734,0,0,1,.156,2.454q.045,8.132.06,16.264c0,.225,0,.451,0,.7h6.965c.01-.194.026-.351.026-.508q-.027-12.653-.068-25.307a1.2,1.2,0,0,0-.3-.741q-3.867-4.147-7.765-8.266L21.036,60.25M87.377,21.025a1.951,1.951,0,0,0-.251-.038q-8.29,0-16.579-.01c-.447,0-.575.162-.577.591-.021,4.332-.062,8.664-.076,13a1.053,1.053,0,0,0,.3.63q1.948,2.1,3.929,4.158a1.13,1.13,0,0,1,.216,1.372,9.93,9.93,0,0,1-.541.915c-.109.181-.308.36-.314.544-.03,1.054-.015,2.111-.015,3.179,2.232.071,4.386.148,6.542.2a1.185,1.185,0,0,1,.886.372q2.956,2.943,5.939,5.859c.135.132.283.249.536.469ZM68.516,38.52c-.142-.164-.195-.235-.257-.3q-6.788-6.79-13.586-13.569a1.091,1.091,0,0,0-.7-.257q-3.316-.026-6.632,0-8.851.054-17.7.126c-.259,0-.518.032-.885.056.2.229.323.376.455.516q6.18,6.558,12.374,13.1a1.186,1.186,0,0,0,.779.31q12.782.024,25.566.013Zm-2.175-7.16a1.987,1.987,0,0,0,.047-.255q0-5.886-.007-11.771a.9.9,0,0,0-.236-.556Q59.563,11.862,52.961,4.963c-.145-.152-.307-.289-.6-.561-.237.3-.434.6-.679.862-4.166,4.38-8.314,8.778-12.529,13.112-.773.8-.6,1.6-.595,2.5.238,0,.416,0,.593,0q8.1.056,16.209.1a1.264,1.264,0,0,1,.98.4q4.751,4.782,9.528,9.539c.134.134.276.26.471.443M45.431,59.431c1.521-1.587,3-3.129,4.48-4.675q4.269-4.467,8.531-8.94a1.052,1.052,0,0,1,.842-.342c3.335.012,6.67.007,10,.007h.567V42.02H42.076a1.9,1.9,0,0,0-.044.282q0,6.715,0,13.429a.737.737,0,0,0,.178.47c1.047,1.069,2.11,2.124,3.216,3.23m47.463,3.463c-.161-.18-.226-.26-.3-.333Q85.94,55.9,79.275,49.259a1.155,1.155,0,0,0-.743-.291c-3.761-.01-7.522,0-11.283.012-1.131,0-2.263,0-3.395,0l-.049.157c.158.181.312.367.477.542q6.065,6.445,12.143,12.876a1.184,1.184,0,0,0,.778.324c5.044.019,10.089.014,15.133.014h.557M56.528,3.484c.156.182.21.249.268.312q6.317,6.656,12.644,13.3a1.189,1.189,0,0,0,.781.308c5.047.018,10.095.013,15.141.012.151,0,.3-.014.55-.026-.2-.21-.326-.35-.46-.484Q78.947,10.4,72.445,3.885a1.261,1.261,0,0,0-.979-.409q-7.116.02-14.232.008Zm6.362,77.048H56v20.833h6.894Zm-20.861-7.2v-.652c0-2.442,0-4.883.011-7.325.006-1.226-.137-2.5.943-3.338-.764-.8-1.462-1.56-2.2-2.277A1.246,1.246,0,0,0,40,59.415q-4.063-.035-8.126-.01c-1.96.011-3.919.054-5.879.09a5.46,5.46,0,0,0-.654.1c.192.231.307.384.436.521q6.1,6.485,12.2,12.963a.723.723,0,0,0,.441.239c1.174.02,2.349.011,3.609.011M17.469,101.311H24.54v-17.3H17.469Zm21.093.044h3.372V76.89H38.562Z" fill="#31572c"/>
    <path id="Path_5959" data-name="Path 5959" d="M89.059,106.913c-1.674,0-3.348,0-5.022,0a5.274,5.274,0,0,1-.8-.077c-1.027-.164-1.333-.518-1.326-1.514a1.56,1.56,0,0,1,1.4-1.665c.992-.088,1.992-.135,2.988-.124,2.688.028,5.378.068,8.064.164a1.56,1.56,0,0,1,1.215,2.344,1.63,1.63,0,0,1-1.607.975c-1.635-.076-3.277-.022-4.916-.022v-.077" transform="translate(-29.379 -37.131)" fill="#31572c"/>
    <path id="Path_5960" data-name="Path 5960" d="M34.425,65.458c1.73,0,3.461.046,5.189-.021A1.762,1.762,0,0,1,41,68.106a1.76,1.76,0,0,1-1.583.869c-3.155-.08-6.311-.092-9.467-.136-.409-.006-.818-.087-1.226-.08a1.506,1.506,0,0,1-1.3-1.973,1.845,1.845,0,0,1,1.764-1.329h5.243" transform="translate(-9.812 -23.469)" fill="#31572c"/>
    <path id="Path_5961" data-name="Path 5961" d="M28.791,117.787c-1.765,0-3.531.018-5.3-.007a1.466,1.466,0,0,1-1.613-1.514,1.6,1.6,0,0,1,1.6-1.662c3.439-.057,6.878-.081,10.319-.095a1.735,1.735,0,0,1,1.9,1.161,1.545,1.545,0,0,1-1.4,2.127c-1.836.041-3.672.011-5.508.011v-.021" transform="translate(-7.848 -41.069)" fill="#31572c"/>
    <path id="Path_5962" data-name="Path 5962" d="M79.9,25.284c-.675-.029-1.352-.04-2.025-.094a1.59,1.59,0,0,1-1.435-1.469,1.562,1.562,0,0,1,1.178-1.741,37.9,37.9,0,0,1,4.36-.09c.707.024,1.433,1.107,1.391,1.815a1.71,1.71,0,0,1-1.548,1.5c-.639-.024-1.279,0-1.92,0,0,.027,0,.055,0,.081" transform="translate(-27.412 -7.842)" fill="#31572c"/>
  </g>
</svg>
