<svg xmlns="http://www.w3.org/2000/svg" xmlns:xlink="http://www.w3.org/1999/xlink" width="25.266" height="14.006" viewBox="0 0 25.266 14.006">
  <defs>
    <clipPath id="clip-path">
      <rect id="Rectangle_1047" data-name="Rectangle 1047" width="25.266" height="14.006" fill="none"/>
    </clipPath>
  </defs>
  <g id="Group_2176" data-name="Group 2176" clip-path="url(#clip-path)">
    <path id="Path_6014" data-name="Path 6014" d="M25.2.511l.034-.017c.035.007.031.029.019.053a.07.07,0,0,0-.017.067c.041.06.006.122,0,.183a.355.355,0,0,1,0,.058c-.013.1-.021.2-.031.3a.11.11,0,0,1-.027.075c-.034.065-.013.138-.027.208a.614.614,0,0,0-.019.178c.037.078,0,.155,0,.232-.026.147-.029.3-.058.444a.978.978,0,0,1-.059.3l-.072.5a1.145,1.145,0,0,1-.031.3c-.015.074-.025.148-.039.222a.154.154,0,0,1-.043.1l-.067.335a.128.128,0,0,1-.033.151l-.054.283a.353.353,0,0,1-.05.218c-.027.017-.01.046-.018.068a.536.536,0,0,1-.029.191c-.031.123-.064.246-.1.368-.06.216-.124.43-.189.644-.029.075-.051.152-.078.228-.02.059-.04.118-.059.178s-.047.15-.078.223a.986.986,0,0,0-.041.116c-.152.407-.314.809-.5,1.2-.048.081-.076.172-.119.254-.126.25-.26.5-.4.74-.052.084-.1.169-.153.254-.1.157-.2.313-.305.465-.052.071-.107.14-.152.216-.037.053-.082.1-.118.154-.055.072-.115.141-.169.214-.036.039-.067.082-.1.123-.048.062-.1.12-.15.182-.018.019-.038.036-.054.056-.047.07-.115.121-.163.189a.227.227,0,0,1-.022.027l-.113.113c-.019.018-.038.037-.056.056l-.348.349a1.661,1.661,0,0,1-.17.154c-.123.12-.26.223-.388.337a9.328,9.328,0,0,1-1.859,1.168q-.446.212-.911.379c-.2.079-.4.134-.605.2a10.621,10.621,0,0,1-1.429.319c-.017,0-.032.008-.049.012-.143.023-.287.04-.431.056a3.275,3.275,0,0,1-.378.033.3.3,0,0,0-.081.012c-.2.01-.4.027-.6.023-.257,0-.513,0-.77,0a.336.336,0,0,1-.116-.015,3.114,3.114,0,0,1-.364-.022,3.176,3.176,0,0,1-.352-.033.4.4,0,0,1-.087-.007c-.083-.013-.168-.022-.251-.034a10.314,10.314,0,0,1-1.081-.207l-.089-.023c-.108-.026-.213-.06-.321-.086a11.2,11.2,0,0,1-2.032-.818c-.08-.04-.153-.092-.236-.126-.549-.3-1.081-.627-1.606-.967-.215-.14-.432-.278-.644-.422-.575-.37-1.138-.758-1.734-1.095a6.92,6.92,0,0,0-1.034-.473.345.345,0,0,0-.065-.017A4.371,4.371,0,0,0,3,9.541a.273.273,0,0,0-.077-.013C2.86,9.518,2.8,9.506,2.745,9.5a2.49,2.49,0,0,0-.313-.019.312.312,0,0,0-.149,0,1.994,1.994,0,0,0-.484.06,1.806,1.806,0,0,0-.655.28,1.627,1.627,0,0,0-.537.583.994.994,0,0,0-.109.221c-.015.033-.026.068-.039.1a1.256,1.256,0,0,0-.057.194,2.717,2.717,0,0,0-.083.519,1.13,1.13,0,0,1,0,.114,3.486,3.486,0,0,0,.146.935,1.933,1.933,0,0,0,.079.226.472.472,0,0,0,.037.087,2.617,2.617,0,0,0,.13.247.366.366,0,0,0,.053.078c.031.046.067.089.1.137s.024.083-.041.113a.153.153,0,0,1-.084-.054A2.976,2.976,0,0,1,.3,12.624c-.033-.066-.056-.135-.086-.2s-.048-.133-.069-.2c-.01-.05-.03-.1-.039-.146s-.027-.108-.042-.161-.019-.087-.025-.131a.8.8,0,0,1-.022-.153A1.546,1.546,0,0,1,0,11.3a3.478,3.478,0,0,1,.038-.394,2.848,2.848,0,0,1,.08-.327,2.393,2.393,0,0,1,.292-.621C.441,9.92.473,9.88.5,9.839s.048-.05.068-.078a2.035,2.035,0,0,1,.412-.37,2.576,2.576,0,0,1,.631-.306,2.937,2.937,0,0,1,.723-.122,4.6,4.6,0,0,1,2.155.489c.4.186.79.4,1.173.622.027.015.054.03.079.047l.051.029a.725.725,0,0,0,.087.052c.07.046.144.088.216.13s.167.1.252.151c.417.256.832.517,1.253.768.092.06.189.112.284.168a1.307,1.307,0,0,0,.141.082c.049.034.1.058.155.089a12.519,12.519,0,0,0,2.43,1.084c.052.016.1.03.155.047a.729.729,0,0,0,.073.02c.143.042.287.082.433.115.206.053.413.1.623.131a9.082,9.082,0,0,0,.983.121c.133.008.267.026.4.023s.278.02.417.018c.4-.006.807-.022,1.209-.064.077,0,.154-.017.23-.028a9.674,9.674,0,0,0,1.016-.181c.133-.023.262-.064.393-.092.054-.016.108-.03.162-.047.14-.041.281-.08.419-.129.114-.034.225-.074.336-.117.2-.068.4-.155.594-.239s.362-.171.54-.261c.1-.067.218-.111.319-.181a.8.8,0,0,0,.121-.07c.149-.088.29-.187.433-.283.207-.141.4-.3.6-.454.112-.1.23-.193.336-.3.2-.179.383-.373.563-.571.14-.156.279-.313.406-.48.034-.046.073-.088.1-.135.08-.1.152-.2.226-.306.08-.119.167-.233.238-.357.013-.019.026-.038.038-.057.06-.084.11-.175.163-.263.033-.052.064-.105.1-.158.014-.024.026-.049.039-.073a12.341,12.341,0,0,0,.733-1.516c.142-.349.27-.7.387-1.061a.83.83,0,0,0,.036-.122c.055-.164.1-.329.149-.5a1.4,1.4,0,0,0,.045-.158c.011-.044.028-.087.037-.131.008-.028.014-.056.021-.084s.019-.073.027-.11c.018-.072.037-.144.053-.217q.143-.586.249-1.179a2.035,2.035,0,0,0,.037-.2c.059-.329.11-.659.155-1.007-.092.038-.174.075-.255.113a9.587,9.587,0,0,1-1.8.663,5.669,5.669,0,0,1-1.584.152c-.094,0-.189-.012-.283-.021q-.387-.042-.768-.12c-.06-.012-.119-.028-.179-.043s-.1-.02-.154-.038-.081-.022-.122-.032-.057-.014-.086-.022q-.7-.2-1.374-.469c-.241-.1-.48-.194-.717-.3-.425-.185-.846-.38-1.268-.572a.936.936,0,0,0-.1-.045c-.1-.04-.19-.081-.287-.117-.213-.077-.427-.151-.646-.207a9.605,9.605,0,0,0-.969-.207c-.028,0-.056,0-.083,0a2.221,2.221,0,0,0-.334-.035c-.167-.013-.333-.028-.5-.029-.23,0-.461.006-.691.016-.045,0-.087.018-.131.017A6.934,6.934,0,0,0,11,.854c-.152.032-.3.071-.453.109a8.952,8.952,0,0,0-1.778.7c-.141.063-.272.143-.406.218-.1.05-.19.113-.285.168-.121.064-.228.15-.346.217a1.177,1.177,0,0,0-.139.1c-.029.018-.057.036-.085.056-.12.079-.233.166-.349.25-.341.251-.671.515-.985.8-.09.067-.167.148-.252.221-.162.144-.318.295-.476.443-.183.171-.343.364-.513.548-.052.066-.108.127-.157.195a.166.166,0,0,1-.027.032c-.037.031-.081.066-.125.027s-.012-.085.016-.119c.082-.1.161-.2.236-.3.094-.12.187-.242.285-.36.14-.177.288-.348.437-.518.065-.064.117-.141.186-.2s.093-.118.151-.167Q5.966,3.234,6,3.2c.184-.177.354-.369.55-.534.207-.2.432-.382.653-.568.095-.072.188-.146.284-.218q.047-.032.091-.069c.1-.073.2-.142.3-.218A9.634,9.634,0,0,1,8.846,1,.288.288,0,0,0,8.895.972.2.2,0,0,1,8.938.947C9.193.828,9.447.7,9.709.6c.141-.055.283-.109.426-.159.029-.01.058-.018.086-.031A8.525,8.525,0,0,1,11.771.057a.373.373,0,0,1,.05,0c.085-.017.173-.012.258-.032a4.907,4.907,0,0,1,.6-.019.491.491,0,0,0,.061,0c.045,0,.09,0,.135,0a6.818,6.818,0,0,1,1.411.155c.115.033.234.048.348.081.158.04.314.086.469.134a8.623,8.623,0,0,1,.9.337c.031.012.06.027.09.041.119.06.244.106.363.165l.045.02c.434.188.866.379,1.31.543a11.692,11.692,0,0,0,1.393.433,8.756,8.756,0,0,0,1.025.179c.047,0,.094,0,.141.006s.084.016.127.015c.024,0,.048,0,.072,0,.114,0,.228,0,.342,0a.965.965,0,0,0,.1-.013l.041,0c.023,0,.046,0,.069,0a5.223,5.223,0,0,0,1.123-.224c.119-.037.237-.074.353-.121a1.709,1.709,0,0,0,.173-.065c.045-.018.091-.035.136-.055.2-.082.392-.171.584-.263.322-.155.638-.321.955-.486.22-.114.438-.231.658-.344.031-.016.061-.041.1-.03" transform="translate(0 0)" fill="#0081b8"/>
    <path id="Path_6015" data-name="Path 6015" d="M27.4,57.686a3.624,3.624,0,0,0-.49.052,7.873,7.873,0,0,0-.8.147,3.661,3.661,0,0,0-.541.149c-.03.033-.074.035-.112.048-.169.06-.341.111-.509.175-.189.066-.372.146-.554.228l-.045.018c-.224.111-.451.215-.664.346-.192.1-.374.222-.556.341-.032.021-.06.052-.1.048a.69.69,0,0,0-.169.118c-.011,0-.027,0-.033,0s.006-.028.015-.035c.132-.108.252-.23.39-.332.114-.085.223-.176.335-.265a.737.737,0,0,1,.268-.184l.4-.251.487-.269a.429.429,0,0,1,.177-.1c.151-.07.3-.139.458-.2A9.484,9.484,0,0,1,26.3,57.4c.168-.044.337-.082.506-.119a9.011,9.011,0,0,1,1.134-.157c.14-.023.283-.009.423-.028.175-.014.351,0,.527-.005a3.1,3.1,0,0,1,.317,0c.132.024.267.013.4.025l.467.04a14.85,14.85,0,0,1,2.051.368c.531.127,1.054.282,1.582.42.375.094.751.187,1.131.265.4.079.8.155,1.211.209a11.934,11.934,0,0,0,1.189.111c.106-.01.21.016.317.016a9.741,9.741,0,0,0,1.778-.157c.117-.021.232-.05.348-.075.022,0,.042-.013.063-.016.1-.023.2-.055.293-.081a.38.38,0,0,0,.059-.016c.055-.017.109-.036.163-.054a5.859,5.859,0,0,0,.648-.262,4.547,4.547,0,0,0,.558-.294,2.951,2.951,0,0,0,.336-.217,4.247,4.247,0,0,0,.348-.253c.1-.079.2-.169.3-.252a8.858,8.858,0,0,0,.8-.813c.018-.021.034-.044.051-.065s.037-.037.053-.058a.852.852,0,0,1,.07-.087c.079-.1.154-.2.23-.294q.043-.053.082-.108a1.628,1.628,0,0,1,.184-.235l.112-.136.014.008-.107.227a.8.8,0,0,0-.1.2.586.586,0,0,1-.135.236,1.017,1.017,0,0,0-.129.2l-.406.572c-.016.022-.034.043-.051.064-.009,0-.014.007-.012.017a.6.6,0,0,1-.206.25l-.183.2a.738.738,0,0,1-.235.235l-.034.033a.647.647,0,0,1-.189.2c-.095.089-.2.171-.3.25a.244.244,0,0,1-.1.055l-.351.25a1.56,1.56,0,0,1-.325.213c-.1.064-.215.117-.323.172-.073.038-.15.069-.224.1a6.884,6.884,0,0,1-1.289.422c-.043.01-.087.018-.13.032a8.423,8.423,0,0,1-1.794.171,9.848,9.848,0,0,1-1.251-.062c-.336-.037-.669-.082-1-.139-.07-.011-.139-.03-.21-.038-.347-.07-.694-.136-1.037-.226-.025-.007-.051-.013-.077-.021s-.068-.018-.1-.024c-.754-.2-1.5-.425-2.262-.6-.018,0-.034-.01-.052-.014-.065-.015-.131-.026-.2-.042-.392-.086-.787-.16-1.185-.215-.224-.03-.448-.066-.674-.079a1.386,1.386,0,0,0-.288-.025,4.823,4.823,0,0,0-.53-.023c-.106.006-.212,0-.318,0-.248-.006-.5.01-.744.02a.174.174,0,0,1-.09-.011" transform="translate(-21.225 -51.224)" fill="#0081b8"/>
  </g>
</svg>
