<svg id="Phone_icon" data-name="Phone icon" xmlns="http://www.w3.org/2000/svg" width="36.32" height="36.32" viewBox="0 0 36.32 36.32">
  <path id="Path_2270" data-name="Path 2270" d="M2821.109-83.89a.547.547,0,0,0-.547.548.547.547,0,0,0,.547.548.548.548,0,0,0,.548-.548A.548.548,0,0,0,2821.109-83.89Z" transform="translate(-2799.122 96.631)" fill="#31572c"/>
  <path id="Path_2271" data-name="Path 2271" d="M2817.314-83.89a.548.548,0,0,0-.548.548.548.548,0,0,0,.548.548.548.548,0,0,0,.548-.548A.548.548,0,0,0,2817.314-83.89Z" transform="translate(-2798.137 96.631)" fill="#31572c"/>
  <path id="Path_2272" data-name="Path 2272" d="M2824.9-83.89a.548.548,0,0,0-.548.548.548.548,0,0,0,.548.548.547.547,0,0,0,.547-.548A.547.547,0,0,0,2824.9-83.89Z" transform="translate(-2800.104 96.631)" fill="#31572c"/>
  <path id="Path_2273" data-name="Path 2273" d="M2816.567-101.088h-13.574a11.373,11.373,0,0,0-11.373,11.373v13.573a11.373,11.373,0,0,0,11.373,11.373h13.574a11.374,11.374,0,0,0,11.373-11.373V-89.715A11.374,11.374,0,0,0,2816.567-101.088Zm2.139,24.632-1.878,3.99a.7.7,0,0,1-.693.383,19.282,19.282,0,0,1-11.666-5.872,19.286,19.286,0,0,1-5.873-11.666.7.7,0,0,1,.383-.693l3.99-1.879a.7.7,0,0,1,.9.254l2.485,3.859a.7.7,0,0,1-.1.862l-1.561,1.56a.691.691,0,0,0-.2.58,8.156,8.156,0,0,0,2.463,4.631,8.149,8.149,0,0,0,4.63,2.462.694.694,0,0,0,.58-.2l1.561-1.561a.7.7,0,0,1,.862-.1l3.86,2.484A.7.7,0,0,1,2818.706-76.456Zm-5.129-6.773a5.888,5.888,0,0,1-2.138-.4l-2.74,1.1.54-2.7a4.093,4.093,0,0,1-.889-2.526c0-2.5,2.34-4.529,5.227-4.529s5.226,2.027,5.226,4.529S2816.463-83.228,2813.577-83.228Z" transform="translate(-2791.621 101.088)" fill="#31572c"/>
</svg>
