<?xml version="1.0" encoding="utf-8"?>
<!-- Generator: Adobe Illustrator 16.0.0, SVG Export Plug-In . SVG Version: 6.00 Build 0)  -->
<!DOCTYPE svg PUBLIC "-//W3C//DTD SVG 1.1//EN" "http://www.w3.org/Graphics/SVG/1.1/DTD/svg11.dtd">
<svg version="1.1" id="Layer_1" xmlns="http://www.w3.org/2000/svg" xmlns:xlink="http://www.w3.org/1999/xlink" x="0px" y="0px"
	 width="612px" height="699.428px" viewBox="0 46.286 612 699.428" enable-background="new 0 46.286 612 699.428"
	 xml:space="preserve">
<path fill="#0091c3" d="M480.857,483.429c-30.885,0-59.27,10.682-81.678,28.544l-140.003-87.502c4.146-18.755,4.146-38.188,0-56.942l140.003-87.502
	c22.408,17.864,50.793,28.545,81.678,28.545c72.428,0,131.143-58.715,131.143-131.143S553.285,46.286,480.857,46.286
	s-131.144,58.715-131.144,131.143c0,9.778,1.08,19.302,3.109,28.47L212.82,293.401c-22.408-17.863-50.793-28.544-81.677-28.544
	C58.715,264.857,0,323.572,0,396s58.715,131.143,131.143,131.143c30.884,0,59.27-10.681,81.677-28.544l140.003,87.503
	c-2.069,9.349-3.111,18.895-3.109,28.47c0,72.428,58.716,131.143,131.144,131.143S612,686.999,612,614.571
	S553.285,483.429,480.857,483.429z"/>
</svg>
