<svg id="taxi-svgrepo-com" xmlns="http://www.w3.org/2000/svg" width="79.875" height="70.455" viewBox="0 0 79.875 70.455">
  <path id="Path_6002" data-name="Path 6002" d="M75.253,56.234h0l-3.309-2.29L68.607,39.4a9.4,9.4,0,0,0-9.2-7.33H51.183V28.2a4.117,4.117,0,0,0-4.112-4.112H32.8A4.117,4.117,0,0,0,28.692,28.2v3.874H20.47a9.4,9.4,0,0,0-9.2,7.33L7.932,53.944,4.622,56.234A10.728,10.728,0,0,0,0,65.054v15.8A3.825,3.825,0,0,0,3.821,84.68H4.3v6.5a3.366,3.366,0,0,0,3.363,3.363h7.265a3.366,3.366,0,0,0,3.363-3.363v-6.5H28.806a5.718,5.718,0,0,0,5.688,5.209H48.3a5.718,5.718,0,0,0,5.688-5.209h7.6v6.5a3.366,3.366,0,0,0,3.363,3.363h7.265a3.366,3.366,0,0,0,3.363-3.363v-6.5h.479a3.825,3.825,0,0,0,3.821-3.821v-15.8A10.727,10.727,0,0,0,75.253,56.234ZM31.626,28.2A1.18,1.18,0,0,1,32.8,27.017H47.071A1.18,1.18,0,0,1,48.249,28.2v3.874H31.626V28.2ZM6.292,58.646l3.777-2.614a1.468,1.468,0,0,0,.6-.878l3.463-15.1A6.476,6.476,0,0,1,20.47,35H59.405a6.476,6.476,0,0,1,6.342,5.052l3.464,15.1a1.467,1.467,0,0,0,.595.878l3.777,2.614h0a7.794,7.794,0,0,1,3.358,6.408V75.222h-23.9V65.082A6.391,6.391,0,0,0,46.657,58.7H33.218a6.391,6.391,0,0,0-6.384,6.384V75.222H2.934V65.054A7.794,7.794,0,0,1,6.292,58.646Zm41.1,16.576V61.712a3.455,3.455,0,0,1,2.72,3.371V75.222Zm-14.9,0h-2.72V65.082a3.455,3.455,0,0,1,2.72-3.371Zm2.934-13.589h3.05V75.222h-3.05Zm5.983,0h3.049V75.222H41.4ZM15.357,91.176a.43.43,0,0,1-.429.429H7.663a.43.43,0,0,1-.429-.429v-6.5h8.123v6.5ZM48.3,86.956H34.494a2.78,2.78,0,0,1-2.73-2.276H51.029A2.78,2.78,0,0,1,48.3,86.956Zm24.342,4.22a.43.43,0,0,1-.429.429H64.948a.43.43,0,0,1-.429-.429v-6.5h8.123v6.5Zm3.413-9.43H3.821a.888.888,0,0,1-.887-.887v-2.7H76.942v2.7A.888.888,0,0,1,76.055,81.746Z" transform="translate(0 -24.083)" fill="#31572c"/>
  <path id="Path_6003" data-name="Path 6003" d="M63.756,106.836h52.577a1.467,1.467,0,0,0,1.43-1.795L114.52,90.9a5.115,5.115,0,0,0-5.009-3.99H70.578a5.115,5.115,0,0,0-5.009,3.99l-3.243,14.136a1.467,1.467,0,0,0,1.43,1.795Zm4.672-15.274a2.2,2.2,0,0,1,2.15-1.713h38.934a2.2,2.2,0,0,1,2.149,1.713l2.831,12.341H65.6Z" transform="translate(-50.107 -74.627)" fill="#31572c"/>
  <path id="Path_6004" data-name="Path 6004" d="M35.046,229.335a5.965,5.965,0,1,0-5.965-5.965A5.972,5.972,0,0,0,35.046,229.335Zm0-9a3.031,3.031,0,1,1-3.031,3.031A3.035,3.035,0,0,1,35.046,220.339Z" transform="translate(-23.394 -179.597)" fill="#31572c"/>
  <path id="Path_6005" data-name="Path 6005" d="M318.338,223.37A5.965,5.965,0,1,0,324.3,217.4,5.972,5.972,0,0,0,318.338,223.37Zm5.965-3.031a3.031,3.031,0,1,1-3.031,3.031A3.035,3.035,0,0,1,324.3,220.339Z" transform="translate(-256.08 -179.597)" fill="#31572c"/>
  <path id="Path_6006" data-name="Path 6006" d="M94.015,262.357a1.467,1.467,0,1,0,.223,2.257,1.484,1.484,0,0,0-.223-2.257Z" transform="translate(-73.798 -215.564)" fill="#31572c"/>
  <path id="Path_6007" data-name="Path 6007" d="M304.529,262.987a1.466,1.466,0,1,0-.664,1.855,1.482,1.482,0,0,0,.664-1.855C304.491,262.9,304.565,263.077,304.529,262.987Z" transform="translate(-242.702 -215.536)" fill="#31572c"/>
</svg>
