<svg id="Group_1978" data-name="Group 1978" xmlns="http://www.w3.org/2000/svg" xmlns:xlink="http://www.w3.org/1999/xlink" width="112.483" height="112.5" viewBox="0 0 112.483 112.5">
  <defs>
    <clipPath id="clip-path">
      <rect id="Rectangle_921" data-name="Rectangle 921" width="112.483" height="112.5" fill="#31572c"/>
    </clipPath>
  </defs>
  <g id="Group_1977" data-name="Group 1977" clip-path="url(#clip-path)">
    <path id="Path_5940" data-name="Path 5940" d="M82.5,50.716h1.488q13.008,0,26.016,0c2.034,0,2.48.437,2.48,2.421q0,28.521,0,57.041c0,1.894-.426,2.32-2.308,2.32H2.277C.453,112.5,0,112.059,0,110.266Q0,69.9,0,29.527c0-1.846.468-2.3,2.349-2.3q13.067,0,26.133,0h1.5V25.886q0-11.791,0-23.583c0-1.864.444-2.3,2.332-2.3h47.85C82.05,0,82.5.443,82.5,2.309q0,23.467,0,46.933ZM79.207,3.3H33.288V109.19h8.88v-1.6q0-16.9,0-33.805c0-2.069.392-2.467,2.418-2.468q11.557,0,23.113,0c2.283,0,2.609.327,2.609,2.627q0,16.9,0,33.805v1.472h8.9ZM3.3,109.2H29.9v-78.7H3.3Zm79.254.016h26.636v-55.2H82.556ZM67.038,74.624h-21.6v34.564h21.6Z" transform="translate(0 0)" fill="#31572c"/>
    <path id="Path_5941" data-name="Path 5941" d="M55.619,51.186c-1.547,0-3.095.01-4.642,0-1.407-.013-1.949-.55-1.955-1.976q-.02-4.7,0-9.4c.006-1.45.519-2,1.931-2.01q4.758-.033,9.516,0c1.362.01,1.892.554,1.9,1.928q.031,4.759,0,9.518c-.009,1.413-.562,1.931-1.993,1.941-1.586.012-3.172,0-4.758,0m3.505-10.127H52.311V47.9h6.814Z" transform="translate(-10.011 -7.716)" fill="#31572c"/>
    <path id="Path_5942" data-name="Path 5942" d="M82.145,51.186c-1.547,0-3.094.01-4.641,0-1.373-.012-1.941-.528-1.95-1.864q-.036-4.816,0-9.633c.009-1.345.56-1.882,1.935-1.892q4.758-.031,9.515,0c1.357.01,1.886.565,1.892,1.932q.024,4.758,0,9.516c-.006,1.4-.563,1.928-1.993,1.938-1.586.012-3.172,0-4.758,0M85.63,41.058H78.815V47.9H85.63Z" transform="translate(-15.428 -7.716)" fill="#31572c"/>
    <path id="Path_5943" data-name="Path 5943" d="M49.019,70.895c0-1.586-.016-3.173,0-4.759.017-1.345.559-1.884,1.918-1.89q4.757-.023,9.515,0c1.355.007,1.9.542,1.913,1.9q.031,4.816,0,9.633c-.01,1.286-.556,1.831-1.863,1.842q-4.815.041-9.63,0c-1.3-.011-1.831-.565-1.849-1.851-.023-1.625-.006-3.25-.006-4.875m10.107-3.336H52.312v6.824h6.814Z" transform="translate(-10.011 -13.119)" fill="#31572c"/>
    <path id="Path_5944" data-name="Path 5944" d="M88.9,71.023c0,1.548.014,3.1,0,4.642-.015,1.385-.518,1.944-1.864,1.956q-4.815.042-9.63,0c-1.3-.011-1.839-.565-1.849-1.854q-.035-4.815,0-9.632c.01-1.353.559-1.882,1.923-1.888q4.757-.023,9.514,0c1.349.006,1.891.554,1.907,1.9.02,1.625,0,3.25,0,4.874M78.846,74.376h6.763V67.513H78.846Z" transform="translate(-15.428 -13.12)" fill="#31572c"/>
    <path id="Path_5945" data-name="Path 5945" d="M55.749,11.388c1.586,0,3.172-.014,4.758,0,1.292.014,1.85.537,1.86,1.826q.037,4.874,0,9.749c-.01,1.217-.554,1.779-1.8,1.793q-4.872.055-9.746,0c-1.29-.015-1.793-.586-1.8-1.9q-.024-4.816,0-9.633c.008-1.282.563-1.816,1.851-1.83,1.624-.018,3.249,0,4.873,0M52.287,21.469h6.819v-6.8H52.287Z" transform="translate(-10.01 -2.325)" fill="#31572c"/>
    <path id="Path_5946" data-name="Path 5946" d="M88.9,18.095c0,1.548.01,3.095,0,4.642-.013,1.465-.494,2.015-1.917,2.029q-4.757.048-9.513,0c-1.385-.014-1.907-.551-1.915-1.914q-.031-4.816,0-9.632c.01-1.294.563-1.822,1.856-1.828q4.815-.023,9.629,0c1.286.006,1.837.55,1.855,1.829.024,1.624.006,3.249.007,4.873m-3.266-3.4H78.817v6.8h6.818Z" transform="translate(-15.428 -2.325)" fill="#31572c"/>
    <path id="Path_5947" data-name="Path 5947" d="M25.811,112.562c0,1.549.01,3.1,0,4.645-.013,1.431-.549,2-1.938,2.006q-4.759.023-9.519,0c-1.328-.007-1.9-.569-1.915-1.921q-.039-4.76,0-9.521c.011-1.407.579-1.954,2.007-1.963q4.7-.03,9.4,0c1.411.01,1.95.58,1.962,1.993.014,1.587,0,3.173,0,4.76M22.536,109.1H15.687v6.805h6.849Z" transform="translate(-2.536 -21.607)" fill="#31572c"/>
    <path id="Path_5948" data-name="Path 5948" d="M25.811,59.622c0,1.626.017,3.252-.006,4.877a1.631,1.631,0,0,1-1.863,1.846q-4.818.027-9.636,0c-1.265-.008-1.856-.574-1.867-1.851q-.044-4.876,0-9.754a1.609,1.609,0,0,1,1.812-1.8q4.875-.048,9.752,0c1.242.014,1.786.637,1.8,1.919.018,1.587,0,3.174,0,4.761M15.694,63.041h6.833V56.217H15.694Z" transform="translate(-2.536 -10.808)" fill="#31572c"/>
    <path id="Path_5949" data-name="Path 5949" d="M19.052,79.412c1.586,0,3.172-.01,4.758,0,1.443.012,1.991.531,2,1.929q.02,4.759,0,9.518c-.006,1.358-.532,1.9-1.9,1.913q-4.758.037-9.516,0c-1.431-.01-1.946-.538-1.955-1.994q-.031-4.7,0-9.4c.01-1.444.543-1.951,1.976-1.966,1.547-.014,3.094,0,4.642,0m3.469,3.327H15.728v6.8h6.793Z" transform="translate(-2.536 -16.219)" fill="#31572c"/>
    <path id="Path_5950" data-name="Path 5950" d="M112.1,112.479c0-1.548-.009-3.1,0-4.643.01-1.433.536-2.016,1.926-2.027q4.758-.038,9.516,0c1.346.011,1.907.574,1.919,1.929q.041,4.759,0,9.518c-.011,1.416-.578,1.952-1.995,1.958q-4.7.019-9.4,0c-1.4-.006-1.954-.567-1.966-1.974-.014-1.586,0-3.173,0-4.759m10.116-3.369h-6.832v6.815h6.832Z" transform="translate(-22.896 -21.607)" fill="#31572c"/>
    <path id="Path_5951" data-name="Path 5951" d="M112.1,86.069c0-1.586-.014-3.172,0-4.758.015-1.346.554-1.889,1.91-1.9q4.757-.023,9.514,0c1.376.006,1.923.515,1.935,1.881q.042,4.816,0,9.632c-.013,1.291-.567,1.833-1.863,1.844q-4.814.039-9.629,0c-1.355-.011-1.853-.562-1.866-1.946-.015-1.586,0-3.172,0-4.758M122.21,82.7h-6.823v6.812h6.823Z" transform="translate(-22.896 -16.218)" fill="#31572c"/>
  </g>
</svg>
